<svg width="26" height="24" viewBox="0 0 26 24" fill="none" xmlns="http://www.w3.org/2000/svg">
<g id="account-plus-outline">
<path id="Vector" d="M15.8397 3.88086C14.7194 3.88086 13.6449 4.28979 12.8527 5.0177C12.0605 5.74561 11.6154 6.73286 11.6154 7.76228C11.6154 8.7917 12.0605 9.77895 12.8527 10.5069C13.6449 11.2348 14.7194 11.6437 15.8397 11.6437C16.9601 11.6437 18.0346 11.2348 18.8268 10.5069C19.619 9.77895 20.064 8.7917 20.064 7.76228C20.064 6.73286 19.619 5.74561 18.8268 5.0177C18.0346 4.28979 16.9601 3.88086 15.8397 3.88086ZM15.8397 5.72454C17.0648 5.72454 18.0575 6.63667 18.0575 7.76228C18.0575 8.8879 17.0648 9.80003 15.8397 9.80003C15.2515 9.80003 14.6875 9.58534 14.2715 9.20319C13.8556 8.82104 13.622 8.30273 13.622 7.76228C13.622 7.22184 13.8556 6.70353 14.2715 6.32138C14.6875 5.93923 15.2515 5.72454 15.8397 5.72454ZM4.22291 6.79193V9.70299H1.05469V11.6437H4.22291V14.5548H6.33506V11.6437H9.50329V9.70299H6.33506V6.79193H4.22291ZM15.8397 12.6141C13.02 12.6141 7.39114 13.9046 7.39114 16.4955V19.4066H24.2883V16.4955C24.2883 13.9046 18.6595 12.6141 15.8397 12.6141ZM15.8397 14.4577C18.9763 14.4577 22.2818 15.8745 22.2818 16.4955V17.5629H9.39768V16.4955C9.39768 15.8745 12.6715 14.4577 15.8397 14.4577Z" fill="#E35205"/>
</g>
</svg>
