<svg width="45" height="45" viewBox="0 0 45 45" fill="none" xmlns="http://www.w3.org/2000/svg">
<path d="M22.6963 0C16.8141 -7.0144e-08 11.1729 2.33668 7.01357 6.49599C2.85426 10.6553 0.517579 16.2965 0.517578 22.1787C0.517578 28.0608 2.85425 33.7021 7.01356 37.8614C11.1729 42.0207 16.8141 44.3574 22.6963 44.3574V40.5848C17.8147 40.5848 13.133 38.6456 9.68119 35.1938C6.22938 31.7419 4.29017 27.0603 4.29017 22.1787C4.29017 17.2971 6.22938 12.6154 9.68119 9.16361C13.133 5.7118 17.8147 3.77259 22.6963 3.77259V0Z" fill="#003087"/>
<path d="M31.9881 20.3504C31.4813 20.9318 30.7834 21.313 30.0203 21.4254C29.2573 21.5377 28.4792 21.3738 27.8263 20.9631C27.8234 20.962 27.8202 20.962 27.8173 20.9631L21.4787 27.3026V27.3098C21.7355 27.7235 21.8959 28.1897 21.948 28.6738C22 29.158 21.9424 29.6476 21.7794 30.1064C21.6164 30.5653 21.3522 30.9815 21.0064 31.3243C20.6605 31.6671 20.242 31.9276 19.7817 32.0866C19.3215 32.2455 18.8313 32.2988 18.3477 32.2424C17.864 32.1861 17.3992 32.0216 16.9878 31.7611C16.5764 31.5007 16.2289 31.1509 15.9712 30.7378C15.7134 30.3247 15.5519 29.8589 15.4987 29.3749C15.0147 29.3217 14.5489 29.1602 14.1358 28.9024C13.7227 28.6447 13.3729 28.2972 13.1125 27.8858C12.852 27.4744 12.6875 27.0096 12.6312 26.5259C12.5748 26.0423 12.6281 25.5521 12.787 25.0919C12.946 24.6316 13.2065 24.2131 13.5493 23.8672C13.8921 23.5214 14.3083 23.2572 14.7672 23.0942C15.226 22.9312 15.7156 22.8736 16.1998 22.9256C16.6839 22.9777 17.1501 23.1381 17.5638 23.3949C17.5667 23.396 17.5699 23.396 17.5728 23.3949L23.9114 17.0554V17.0482C23.6546 16.6345 23.4942 16.1683 23.4422 15.6842C23.3901 15.2 23.4477 14.7104 23.6107 14.2515C23.7737 13.7927 24.0379 13.3765 24.3838 13.0337C24.7296 12.6909 25.1482 12.4304 25.6084 12.2714C26.0687 12.1125 26.5588 12.0592 27.0425 12.1155C27.5261 12.1719 27.9909 12.3364 28.4023 12.5968C28.8137 12.8573 29.1612 13.2071 29.419 13.6201C29.6768 14.0332 29.8382 14.4991 29.8914 14.9831C30.483 15.0454 31.0461 15.2691 31.5191 15.6299C31.9921 15.9907 32.3567 16.4746 32.5732 17.0287C32.7896 17.5828 32.8495 18.1857 32.7463 18.7716C32.6431 19.3574 32.3808 19.9036 31.9881 20.3504Z" fill="#003087"/>
<path d="M22.6963 44.3574C28.5784 44.3574 34.2197 42.0207 38.379 37.8614C42.5383 33.7021 44.875 28.0608 44.875 22.1787C44.875 16.2965 42.5383 10.6553 38.379 6.49599C34.2197 2.33668 28.5784 1.1453e-06 22.6963 0V3.77259C27.5779 3.7726 32.2595 5.7118 35.7113 9.16362C39.1632 12.6154 41.1024 17.2971 41.1024 22.1787C41.1024 27.0603 39.1631 31.7419 35.7113 35.1938C32.2595 38.6456 27.5779 40.5848 22.6963 40.5848L22.6963 44.3574Z" fill="#003087"/>
</svg>
