<svg width="63" height="62" viewBox="0 0 63 62" fill="none" xmlns="http://www.w3.org/2000/svg">
<g style="mix-blend-mode:luminosity">
<mask id="mask0_890_172615" style="mask-type:luminance" maskUnits="userSpaceOnUse" x="0" y="0" width="63" height="62">
<path d="M60.9283 39.5174C56.2401 55.9143 39.1472 65.4067 22.7502 60.7183C6.35294 56.03 -3.13895 38.9372 1.54919 22.5401C6.23733 6.14308 23.3305 -3.34912 39.7273 1.33914C56.1244 6.02741 65.6166 23.1203 60.9283 39.5174Z" fill="white"/>
</mask>
<g mask="url(#mask0_890_172615)">
<path d="M60.9283 39.5174C56.2401 55.9143 39.1472 65.4067 22.7502 60.7183C6.35294 56.03 -3.13895 38.9372 1.54919 22.5401C6.23733 6.14308 23.3305 -3.34912 39.7273 1.33914C56.1244 6.02741 65.6166 23.1203 60.9283 39.5174Z" fill="url(#paint0_linear_890_172615)"/>
</g>
<path d="M59.8029 30.9237C59.8072 32.0962 59.7426 33.2566 59.6081 34.3926C59.4577 35.6716 59.2221 36.9257 58.9049 38.1482C58.7728 38.6742 58.6237 39.1917 58.4587 39.7049V39.7091C58.1567 40.6582 57.8061 41.5921 57.4061 42.4974C56.5422 44.4662 55.4622 46.3181 54.1978 48.0246C53.1245 49.4736 51.9161 50.8169 50.5938 52.0309C45.5299 56.7014 38.7705 59.5627 31.3415 59.5897C23.905 59.6165 17.1172 56.799 12.0203 52.1562C10.7095 50.9644 9.5119 49.6543 8.44031 48.2369C6.44039 45.5943 4.89085 42.5954 3.90656 39.3505C3.44498 37.8341 3.10558 36.2676 2.90036 34.6568C2.75388 33.5007 2.67638 32.3252 2.67206 31.1283C2.61569 15.3504 15.3598 2.51896 31.1376 2.46235C46.9112 2.40573 59.7469 15.1464 59.8029 30.9237Z" fill="#32B2AC"/>
<mask id="mask1_890_172615" style="mask-type:luminance" maskUnits="userSpaceOnUse" x="2" y="2" width="59" height="58">
<path d="M59.1108 37.4995L58.8143 37.4307C55.7619 50.5586 44.089 59.3482 31.2564 59.3482C28.7933 59.3482 26.2875 59.025 23.7911 58.3456C11.2898 54.9462 2.92471 43.4656 2.92519 30.9843C2.92519 28.8827 3.16225 26.7532 3.65641 24.6279C6.70941 11.5001 18.3814 2.71102 31.2138 2.71102C33.6769 2.71102 36.1827 3.03428 38.6793 3.71369C51.1808 7.11315 59.5461 18.5936 59.5455 31.075C59.5455 33.1759 59.3087 35.3054 58.8143 37.4307L59.1108 37.4995L59.4073 37.5683C59.912 35.398 60.1543 33.2216 60.1543 31.075C60.1537 18.3221 51.6136 6.60238 38.8388 3.12621C36.2899 2.4328 33.7305 2.10223 31.2138 2.10223C18.1037 2.10162 6.18287 11.0806 3.06357 24.4904C2.5587 26.6607 2.31641 28.8371 2.31641 30.9843C2.31708 43.7365 10.8568 55.4563 23.6313 58.9331C26.1803 59.6265 28.7403 59.957 31.2564 59.957C44.3672 59.9578 56.2879 50.9782 59.4073 37.5683L59.1108 37.4995Z" fill="white"/>
</mask>
<g mask="url(#mask1_890_172615)">
<path d="M59.1108 37.4995L58.8143 37.4307C55.7619 50.5586 44.089 59.3482 31.2564 59.3482C28.7933 59.3482 26.2875 59.025 23.7911 58.3456C11.2898 54.9462 2.92471 43.4656 2.92519 30.9843C2.92519 28.8827 3.16225 26.7532 3.65641 24.6279C6.70941 11.5001 18.3814 2.71102 31.2138 2.71102C33.6769 2.71102 36.1827 3.03428 38.6793 3.71369C51.1808 7.11315 59.5461 18.5936 59.5455 31.075C59.5455 33.1759 59.3087 35.3054 58.8143 37.4307L59.1108 37.4995L59.4073 37.5683C59.912 35.398 60.1543 33.2216 60.1543 31.075C60.1537 18.3221 51.6136 6.60238 38.8388 3.12621C36.2899 2.4328 33.7305 2.10223 31.2138 2.10223C18.1037 2.10162 6.18287 11.0806 3.06357 24.4904C2.5587 26.6607 2.31641 28.8371 2.31641 30.9843C2.31708 43.7365 10.8568 55.4563 23.6313 58.9331C26.1803 59.6265 28.7403 59.957 31.2564 59.957C44.3672 59.9578 56.2879 50.9782 59.4073 37.5683L59.1108 37.4995Z" fill="url(#paint1_radial_890_172615)"/>
</g>
<mask id="mask2_890_172615" style="mask-type:luminance" maskUnits="userSpaceOnUse" x="11" y="10" width="41" height="42">
<path d="M50.6805 36.5847C47.6097 47.3238 36.4154 53.5393 25.677 50.4699C14.9383 47.3991 8.72199 36.2048 11.792 25.4658C14.8626 14.7281 26.0569 8.51174 36.7953 11.5818C47.5343 14.652 53.7506 25.8463 50.6805 36.5847Z" fill="white"/>
</mask>
<g mask="url(#mask2_890_172615)">
<path d="M50.6805 36.5847C47.6097 47.3238 36.4154 53.5393 25.677 50.4699C14.9383 47.3991 8.72199 36.2048 11.792 25.4658C14.8626 14.7281 26.0569 8.51174 36.7953 11.5818C47.5343 14.652 53.7506 25.8463 50.6805 36.5847Z" fill="url(#paint2_linear_890_172615)"/>
</g>
<mask id="mask3_890_172615" style="mask-type:luminance" maskUnits="userSpaceOnUse" x="11" y="11" width="40" height="40">
<path d="M43.1323 46.5725C34.5478 53.1426 22.2616 51.5099 15.6912 42.9248C9.12081 34.3397 10.7541 22.0537 19.3392 15.4837C27.9242 8.91307 40.2101 10.5465 46.7802 19.1316C53.3508 27.7167 51.7174 40.002 43.1323 46.5725Z" fill="white"/>
</mask>
<g mask="url(#mask3_890_172615)">
<path d="M43.1323 46.5725C34.5478 53.1426 22.2616 51.5099 15.6912 42.9248C9.12081 34.3397 10.7541 22.0537 19.3392 15.4837C27.9242 8.91307 40.2101 10.5465 46.7802 19.1316C53.3508 27.7167 51.7174 40.002 43.1323 46.5725Z" fill="url(#paint3_linear_890_172615)"/>
</g>
<mask id="mask4_890_172615" style="mask-type:luminance" maskUnits="userSpaceOnUse" x="35" y="51" width="6" height="5">
<path d="M38.2853 51.2697L38.9227 52.9146L40.684 53.0121L39.316 54.1263L39.7677 55.832L38.2853 54.8756L36.8029 55.832L37.2547 54.1263L35.8867 53.0121L37.6479 52.9146L38.2853 51.2697Z" fill="white"/>
</mask>
<g mask="url(#mask4_890_172615)">
<path d="M38.2853 51.2697L38.9227 52.9146L40.684 53.0121L39.316 54.1263L39.7677 55.832L38.2853 54.8756L36.8029 55.832L37.2547 54.1263L35.8867 53.0121L37.6479 52.9146L38.2853 51.2697Z" fill="url(#paint4_linear_890_172615)"/>
</g>
<mask id="mask5_890_172615" style="mask-type:luminance" maskUnits="userSpaceOnUse" x="21" y="51" width="6" height="5">
<path d="M24.1818 51.2697L24.8188 52.9146L26.5803 53.0121L25.213 54.1263L25.6641 55.832L24.1818 54.8756L22.6992 55.832L23.1508 54.1263L21.7832 53.0121L23.5447 52.9146L24.1818 51.2697Z" fill="white"/>
</mask>
<g mask="url(#mask5_890_172615)">
<path d="M24.1818 51.2697L24.8188 52.9146L26.5803 53.0121L25.213 54.1263L25.6641 55.832L24.1818 54.8756L22.6992 55.832L23.1508 54.1263L21.7832 53.0121L23.5447 52.9146L24.1818 51.2697Z" fill="url(#paint5_linear_890_172615)"/>
</g>
<mask id="mask6_890_172615" style="mask-type:luminance" maskUnits="userSpaceOnUse" x="28" y="52" width="7" height="7">
<path d="M31.2385 52.1207L32.0945 54.3307L34.4608 54.4615L32.6229 55.9585L33.2299 58.25L31.2385 56.9653L29.2466 58.25L29.8529 55.9585L28.0156 54.4615L30.3826 54.3307L31.2385 52.1207Z" fill="white"/>
</mask>
<g mask="url(#mask6_890_172615)">
<path d="M31.2385 52.1207L32.0945 54.3307L34.4608 54.4615L32.6229 55.9585L33.2299 58.25L31.2385 56.9653L29.2466 58.25L29.8529 55.9585L28.0156 54.4615L30.3826 54.3307L31.2385 52.1207Z" fill="url(#paint6_linear_890_172615)"/>
</g>
<mask id="mask7_890_172615" style="mask-type:luminance" maskUnits="userSpaceOnUse" x="35" y="6" width="6" height="5">
<path d="M38.2853 6.11354L38.9227 7.75848L40.684 7.85589L39.316 8.97057L39.7677 10.6758L38.2853 9.71999L36.8029 10.6758L37.2547 8.97057L35.8867 7.85589L37.6479 7.75848L38.2853 6.11354Z" fill="white"/>
</mask>
<g mask="url(#mask7_890_172615)">
<path d="M38.2853 6.11354L38.9227 7.75848L40.684 7.85589L39.316 8.97057L39.7677 10.6758L38.2853 9.71999L36.8029 10.6758L37.2547 8.97057L35.8867 7.85589L37.6479 7.75848L38.2853 6.11354Z" fill="url(#paint7_linear_890_172615)"/>
</g>
<mask id="mask8_890_172615" style="mask-type:luminance" maskUnits="userSpaceOnUse" x="21" y="6" width="6" height="5">
<path d="M24.1818 6.11745L24.8188 7.76239L26.5803 7.85979L25.213 8.97448L25.6641 10.6797L24.1818 9.7239L22.6992 10.6797L23.1508 8.97448L21.7832 7.85979L23.5447 7.76239L24.1818 6.11745Z" fill="white"/>
</mask>
<g mask="url(#mask8_890_172615)">
<path d="M24.1818 6.11745L24.8188 7.76239L26.5803 7.85979L25.213 8.97448L25.6641 10.6797L24.1818 9.7239L22.6992 10.6797L23.1508 8.97448L21.7832 7.85979L23.5447 7.76239L24.1818 6.11745Z" fill="url(#paint8_linear_890_172615)"/>
</g>
<mask id="mask9_890_172615" style="mask-type:luminance" maskUnits="userSpaceOnUse" x="28" y="3" width="7" height="7">
<path d="M31.2385 3.49965L32.0945 5.70954L34.4608 5.84043L32.6229 7.33804L33.2299 9.62891L31.2385 8.34376L29.2466 9.62891L29.8529 7.33804L28.0156 5.84043L30.3826 5.70954L31.2385 3.49965Z" fill="white"/>
</mask>
<g mask="url(#mask9_890_172615)">
<path d="M31.2385 3.49965L32.0945 5.70954L34.4608 5.84043L32.6229 7.33804L33.2299 9.62891L31.2385 8.34376L29.2466 9.62891L29.8529 7.33804L28.0156 5.84043L30.3826 5.70954L31.2385 3.49965Z" fill="url(#paint9_linear_890_172615)"/>
</g>
<g filter="url(#filter0_d_890_172615)">
<path d="M43.8819 30.0369C43.5124 29.9599 43.2657 30.1601 42.9431 30.1915C42.6738 30.8595 42.3209 31.5678 41.5436 31.7514C40.7131 32.036 39.99 31.6213 39.3593 31.206C39.2824 31.1134 39.3363 30.8825 39.121 30.968C37.6063 29.1527 35.3295 28.8284 33.4293 27.7751C33.1684 27.7751 33.2762 27.3994 32.9607 27.5371C32.3074 26.6222 31.2148 26.7904 30.3918 26.2909C29.8377 25.8069 28.9226 26.1909 28.3611 25.7452C27.9688 25.6137 27.4153 25.722 27.1925 25.3525L25.5537 25.4295C25.0458 25.9071 24.316 25.5067 23.6848 25.5915L22.6699 24.5762L22.746 25.1222C22.6228 25.3913 22.4689 25.1606 22.277 25.199V25.4295C22.339 25.7374 22.5241 26.0681 22.1228 26.2135C21.9392 26.5529 21.4386 26.8525 21.5778 27.2292C21.2341 27.8226 20.4279 28.0258 19.9772 28.5663C19.8192 28.7559 19.8972 29.0518 20.1299 29.1337C20.3902 29.2252 20.7028 29.1653 21.0318 29.0983C21.3237 29.429 20.6544 29.552 20.7158 29.8755C21.2844 30.0983 21.8548 29.8442 22.277 29.4906C22.746 29.3827 23.2156 29.045 23.6848 29.1757C23.0925 29.8442 21.8621 29.9748 21.8846 31.129H22.1228C22.3544 31.3367 22.0087 31.4902 22.1228 31.7514C23.0465 32.2441 22.8544 30.9213 23.5235 30.7365L24.5396 30.6599C24.6846 30.8452 24.8702 30.9522 25.0846 30.968C25.8149 31.4516 26.7616 31.5821 27.4228 32.0599C27.9607 32.2588 27.7923 31.6292 28.0449 31.4358C29.3147 32.3981 30.8144 32.775 32.4153 32.9205C32.914 32.8281 33.4599 33.0897 34.0532 32.9979C34.7526 33.175 34.2364 33.6968 34.0532 34.0128C33.8376 35.897 35.7445 36.2823 36.7824 37.443C37.2289 38.766 35.1524 39.3353 35.9302 40.7965L36.4747 40.6432C36.6067 40.9053 36.5218 41.2581 36.7063 41.4963L37.1754 41.1899C37.1598 41.0737 37.36 40.9583 37.1754 40.8735C37.2899 40.3581 37.1986 39.7432 37.7216 39.3893C38.0521 38.9277 38.3285 38.4426 38.4986 37.913C38.1208 37.3358 37.9056 37.0426 37.4052 36.582C37.2669 34.9978 39.1063 35.0597 39.121 33.5437L39.0442 33.4671C39.0749 33.3364 38.9817 33.1595 39.121 33.0748C38.9817 33.0209 39.0749 32.8663 39.0442 32.7672C39.2054 32.5676 39.4139 32.4904 39.6666 32.5292C40.0135 32.8443 40.6747 32.5364 40.9212 32.9205L41.9291 32.9979C42.9811 33.0354 43.2205 31.9595 43.728 31.3593C43.7049 30.8904 44.4433 30.4365 43.8819 30.0369Z" fill="#E35205"/>
</g>
<g filter="url(#filter1_d_890_172615)">
<path d="M36.7846 26.5967C36.7846 28.0683 36.4983 29.7043 35.8987 31.3685C34.809 34.3992 32.8384 36.8891 30.7572 37.8678C29.6847 38.3723 28.626 38.4597 27.6873 38.1213C26.751 37.7855 25.9898 37.0412 25.486 35.9697C24.5058 33.8889 24.576 30.7143 25.6662 27.6854C26.7555 24.6555 28.728 22.1666 30.806 21.186C31.8794 20.6826 32.9414 20.5948 33.8768 20.9306C35.7548 21.6076 36.7846 23.8063 36.7846 26.5967ZM34.9156 31.0156C35.4618 29.5039 35.7217 27.9873 35.7217 26.6336C35.7217 24.2847 34.9446 22.4238 33.5243 21.9125C32.8525 21.6726 32.0678 21.7479 31.2525 22.1306C29.4122 22.995 27.6487 25.2587 26.6476 28.0382C25.6481 30.8177 25.5651 33.6851 26.4297 35.5235C26.8128 36.3407 27.3715 36.8991 28.0414 37.1405C28.7128 37.3821 29.4977 37.307 30.313 36.9243C32.1529 36.0589 33.9177 33.7943 34.9156 31.0156Z" fill="#E35205"/>
</g>
</g>
<defs>
<filter id="filter0_d_890_172615" x="19.0392" y="24.5762" width="25.9089" height="18.6305" filterUnits="userSpaceOnUse" color-interpolation-filters="sRGB">
<feFlood flood-opacity="0" result="BackgroundImageFix"/>
<feColorMatrix in="SourceAlpha" type="matrix" values="0 0 0 0 0 0 0 0 0 0 0 0 0 0 0 0 0 0 127 0" result="hardAlpha"/>
<feOffset dy="0.855312"/>
<feGaussianBlur stdDeviation="0.427656"/>
<feComposite in2="hardAlpha" operator="out"/>
<feColorMatrix type="matrix" values="0 0 0 0 0 0 0 0 0 0 0 0 0 0 0 0 0 0 0.16 0"/>
<feBlend mode="normal" in2="BackgroundImageFix" result="effect1_dropShadow_890_172615"/>
<feBlend mode="normal" in="SourceGraphic" in2="effect1_dropShadow_890_172615" result="shape"/>
</filter>
<filter id="filter1_d_890_172615" x="23.9416" y="20.7305" width="13.6979" height="19.3039" filterUnits="userSpaceOnUse" color-interpolation-filters="sRGB">
<feFlood flood-opacity="0" result="BackgroundImageFix"/>
<feColorMatrix in="SourceAlpha" type="matrix" values="0 0 0 0 0 0 0 0 0 0 0 0 0 0 0 0 0 0 127 0" result="hardAlpha"/>
<feOffset dy="0.855312"/>
<feGaussianBlur stdDeviation="0.427656"/>
<feComposite in2="hardAlpha" operator="out"/>
<feColorMatrix type="matrix" values="0 0 0 0 0 0 0 0 0 0 0 0 0 0 0 0 0 0 0.16 0"/>
<feBlend mode="normal" in2="BackgroundImageFix" result="effect1_dropShadow_890_172615"/>
<feBlend mode="normal" in="SourceGraphic" in2="effect1_dropShadow_890_172615" result="shape"/>
</filter>
<linearGradient id="paint0_linear_890_172615" x1="0.351587" y1="31.0284" x2="62.1258" y2="31.0284" gradientUnits="userSpaceOnUse">
<stop stop-color="#F48C55"/>
<stop offset="0.312332" stop-color="#E35205"/>
<stop offset="0.957503" stop-color="#E35205"/>
<stop offset="1" stop-color="#F58F59"/>
</linearGradient>
<radialGradient id="paint1_radial_890_172615" cx="0" cy="0" r="1" gradientUnits="userSpaceOnUse" gradientTransform="translate(31.2357 31.0293) rotate(14.3586) scale(28.9232 28.9232)">
<stop stop-color="#FFF5A8"/>
<stop offset="0.722813" stop-color="#FFF5A8"/>
<stop offset="0.798686" stop-color="#FFF5A8"/>
<stop offset="1" stop-color="#FFF5A8"/>
</radialGradient>
<linearGradient id="paint2_linear_890_172615" x1="11.0079" y1="31.0253" x2="51.4645" y2="31.0253" gradientUnits="userSpaceOnUse">
<stop stop-color="#FFF5A8"/>
<stop offset="0.312332" stop-color="#BD8100"/>
<stop offset="0.957503" stop-color="#F1DC83"/>
<stop offset="1" stop-color="#F1DC83"/>
</linearGradient>
<linearGradient id="paint3_linear_890_172615" x1="15.5202" y1="19.3501" x2="46.9513" y2="42.7066" gradientUnits="userSpaceOnUse">
<stop stop-color="#DFDFDF"/>
<stop offset="0.312332" stop-color="#C5C5C5"/>
<stop offset="0.957503" stop-color="#E1E1E1"/>
<stop offset="1" stop-color="#EAEAEA"/>
</linearGradient>
<linearGradient id="paint4_linear_890_172615" x1="38.2853" y1="55.832" x2="38.2853" y2="51.2696" gradientUnits="userSpaceOnUse">
<stop stop-color="#F8DA5B"/>
<stop offset="0.217058" stop-color="#AE802B"/>
<stop offset="0.328146" stop-color="#AE802B"/>
<stop offset="0.442225" stop-color="#F8DA5B"/>
<stop offset="0.45668" stop-color="#F8DA5B"/>
<stop offset="0.464777" stop-color="#F8DA5B"/>
<stop offset="0.579076" stop-color="#FDF9BD"/>
<stop offset="0.766806" stop-color="#DEC874"/>
<stop offset="0.800575" stop-color="#DEC874"/>
<stop offset="0.977573" stop-color="#FDF9BD"/>
<stop offset="1" stop-color="#FDF9BD"/>
</linearGradient>
<linearGradient id="paint5_linear_890_172615" x1="24.1818" y1="55.832" x2="24.1818" y2="51.2696" gradientUnits="userSpaceOnUse">
<stop stop-color="#F8DA5B"/>
<stop offset="0.217058" stop-color="#AE802B"/>
<stop offset="0.328146" stop-color="#AE802B"/>
<stop offset="0.442225" stop-color="#F8DA5B"/>
<stop offset="0.45668" stop-color="#F8DA5B"/>
<stop offset="0.464777" stop-color="#F8DA5B"/>
<stop offset="0.579076" stop-color="#FDF9BD"/>
<stop offset="0.766806" stop-color="#DEC874"/>
<stop offset="0.800575" stop-color="#DEC874"/>
<stop offset="0.977573" stop-color="#FDF9BD"/>
<stop offset="1" stop-color="#FDF9BD"/>
</linearGradient>
<linearGradient id="paint6_linear_890_172615" x1="31.2385" y1="58.25" x2="31.2385" y2="52.1207" gradientUnits="userSpaceOnUse">
<stop stop-color="#F8DA5B"/>
<stop offset="0.217058" stop-color="#AE802B"/>
<stop offset="0.328146" stop-color="#AE802B"/>
<stop offset="0.442225" stop-color="#F8DA5B"/>
<stop offset="0.45668" stop-color="#F8DA5B"/>
<stop offset="0.464777" stop-color="#F8DA5B"/>
<stop offset="0.579076" stop-color="#FDF9BD"/>
<stop offset="0.766806" stop-color="#DEC874"/>
<stop offset="0.800575" stop-color="#DEC874"/>
<stop offset="0.977573" stop-color="#FDF9BD"/>
<stop offset="1" stop-color="#FDF9BD"/>
</linearGradient>
<linearGradient id="paint7_linear_890_172615" x1="38.2853" y1="10.6764" x2="38.2853" y2="6.11394" gradientUnits="userSpaceOnUse">
<stop stop-color="#F8DA5B"/>
<stop offset="0.217058" stop-color="#AE802B"/>
<stop offset="0.328146" stop-color="#AE802B"/>
<stop offset="0.442225" stop-color="#F8DA5B"/>
<stop offset="0.45668" stop-color="#F8DA5B"/>
<stop offset="0.464777" stop-color="#F8DA5B"/>
<stop offset="0.579076" stop-color="#FDF9BD"/>
<stop offset="0.766806" stop-color="#DEC874"/>
<stop offset="0.800575" stop-color="#DEC874"/>
<stop offset="0.977573" stop-color="#FDF9BD"/>
<stop offset="1" stop-color="#FDF9BD"/>
</linearGradient>
<linearGradient id="paint8_linear_890_172615" x1="24.1818" y1="10.6803" x2="24.1818" y2="6.11785" gradientUnits="userSpaceOnUse">
<stop stop-color="#F8DA5B"/>
<stop offset="0.217058" stop-color="#AE802B"/>
<stop offset="0.328146" stop-color="#AE802B"/>
<stop offset="0.442225" stop-color="#F8DA5B"/>
<stop offset="0.45668" stop-color="#F8DA5B"/>
<stop offset="0.464777" stop-color="#F8DA5B"/>
<stop offset="0.579076" stop-color="#FDF9BD"/>
<stop offset="0.766806" stop-color="#DEC874"/>
<stop offset="0.800575" stop-color="#DEC874"/>
<stop offset="0.977573" stop-color="#FDF9BD"/>
<stop offset="1" stop-color="#FDF9BD"/>
</linearGradient>
<linearGradient id="paint9_linear_890_172615" x1="31.2385" y1="9.62891" x2="31.2385" y2="3.49959" gradientUnits="userSpaceOnUse">
<stop stop-color="#F8DA5B"/>
<stop offset="0.217058" stop-color="#AE802B"/>
<stop offset="0.328146" stop-color="#AE802B"/>
<stop offset="0.442225" stop-color="#F8DA5B"/>
<stop offset="0.45668" stop-color="#F8DA5B"/>
<stop offset="0.464777" stop-color="#F8DA5B"/>
<stop offset="0.579076" stop-color="#FDF9BD"/>
<stop offset="0.766806" stop-color="#DEC874"/>
<stop offset="0.800575" stop-color="#DEC874"/>
<stop offset="0.977573" stop-color="#FDF9BD"/>
<stop offset="1" stop-color="#FDF9BD"/>
</linearGradient>
</defs>
</svg>
