<svg width="46" height="52" viewBox="0 0 46 52" fill="none" xmlns="http://www.w3.org/2000/svg">
<path d="M24.0294 0.293044C23.6312 0.10105 23.2044 0 22.7587 0C22.3131 0 21.8863 0.10105 21.488 0.293044L3.63195 8.36692C1.54574 9.30669 -0.00943966 11.4995 4.31324e-05 14.147C0.0474571 24.1711 3.91644 42.5116 20.2553 50.8483C21.8389 51.6567 23.6786 51.6567 25.2622 50.8483C41.601 42.5116 45.47 24.1711 45.5174 14.147C45.5269 11.4995 43.9717 9.30669 41.8855 8.36692L24.0294 0.293044ZM13.7406 28.9204C14.1958 29.0417 14.6794 29.1023 15.1725 29.1023C18.5199 29.1023 21.2415 26.2022 21.2415 22.6352V16.168H25.4329C26.5803 16.168 27.6329 16.8551 28.145 17.9565L28.8277 19.4016H34.8967C35.7312 19.4016 36.414 20.1291 36.414 21.0184V24.2519C36.414 28.7183 33.0191 32.3359 28.8277 32.3359H24.276V37.4592C24.276 38.1968 23.7165 38.8031 23.0148 38.8031C22.8441 38.8031 22.6734 38.7627 22.5217 38.692L13.1622 34.4176C12.5363 34.1346 12.138 33.4778 12.138 32.7603C12.138 32.4774 12.1949 32.2046 12.3182 31.9519L13.7406 28.9204ZM13.6553 16.168H18.207V22.6352C18.207 24.4237 16.851 25.8687 15.1725 25.8687C13.4941 25.8687 12.138 24.4237 12.138 22.6352V17.7848C12.138 16.8955 12.8208 16.168 13.6553 16.168ZM25.7932 21.0184C25.7932 20.5896 25.6334 20.1783 25.3488 19.8751C25.0643 19.5719 24.6784 19.4016 24.276 19.4016C23.8736 19.4016 23.4877 19.5719 23.2031 19.8751C22.9186 20.1783 22.7587 20.5896 22.7587 21.0184C22.7587 21.4472 22.9186 21.8584 23.2031 22.1616C23.4877 22.4648 23.8736 22.6352 24.276 22.6352C24.6784 22.6352 25.0643 22.4648 25.3488 22.1616C25.6334 21.8584 25.7932 21.4472 25.7932 21.0184Z" fill="#E35205"/>
</svg>
