<svg width="18" height="20" viewBox="0 0 18 20" fill="none" xmlns="http://www.w3.org/2000/svg">
<path d="M14.3169 10.534C14.3081 8.90076 15.037 7.668 16.5122 6.76012C15.6868 5.56297 14.4399 4.90432 12.7934 4.77526C11.2348 4.65065 9.53127 5.69648 8.90782 5.69648C8.24925 5.69648 6.73891 4.81976 5.55347 4.81976C3.10357 4.85981 0.5 6.80018 0.5 10.7477C0.5 11.9137 0.710744 13.1182 1.13223 14.3614C1.69422 15.9947 3.72263 20 5.83886 19.9332C6.94527 19.9065 7.72678 19.1366 9.16686 19.1366C10.563 19.1366 11.2875 19.9332 12.5212 19.9332C14.655 19.9021 16.4902 16.2617 17.0259 14.6239C14.1633 13.2577 14.3169 10.6186 14.3169 10.534ZM11.8319 3.22652C13.0305 1.7846 12.9207 0.47174 12.8856 0C11.8275 0.0623053 10.6026 0.729862 9.90447 1.55318C9.13613 2.43436 8.68391 3.5247 8.7805 4.753C9.92642 4.84201 10.9714 4.24566 11.8319 3.22652Z" fill="#003087"/>
</svg>
