<svg width="35" height="35" viewBox="0 0 35 35" fill="none" xmlns="http://www.w3.org/2000/svg">
<rect x="0.5" y="0.5" width="34" height="34" rx="17" stroke="#E35205"/>
<path d="M13 17.4958C13 17.6426 13.0265 17.7781 13.0796 17.9023C13.1385 18.0265 13.2269 18.1451 13.3448 18.258L20.2318 24.712C20.4322 24.904 20.6739 25 20.9568 25C21.1513 25 21.3251 24.9548 21.4784 24.8645C21.6375 24.7798 21.7642 24.6612 21.8585 24.5088C21.9528 24.3619 22 24.1982 22 24.0175C22 23.7465 21.891 23.5065 21.6729 23.2976L15.4666 17.4958L21.6729 11.694C21.891 11.485 22 11.2479 22 10.9825C22 10.7962 21.9528 10.6296 21.8585 10.4828C21.7642 10.336 21.6375 10.2202 21.4784 10.1355C21.3251 10.0452 21.1513 10 20.9568 10C20.6739 10 20.4322 10.0932 20.2318 10.2795L13.3448 16.7335C13.2269 16.8464 13.1385 16.965 13.0796 17.0892C13.0265 17.2134 13 17.349 13 17.4958Z" fill="#003087"/>
</svg>
