<svg xmlns="http://www.w3.org/2000/svg" width="20" height="20" viewBox="0 0 20 20" fill="none">
  <path d="M5.63628 9.12977H7.21615V10.7096H5.63628V9.12977ZM16.6953 4.39019V15.4492C16.6953 16.326 15.9923 17.0291 15.1155 17.0291H4.05642C3.1796 17.0291 2.47656 16.3181 2.47656 15.4492V4.39019C2.47656 3.52127 3.1875 2.81033 4.05642 2.81033H4.84635V1.23047H6.42622V2.81033H12.7457V1.23047H14.3255V2.81033H15.1155C15.9923 2.81033 16.6953 3.52127 16.6953 4.39019ZM4.05642 5.97005H15.1155V4.39019H4.05642V5.97005ZM15.1155 15.4492V7.54991H4.05642V15.4492H15.1155ZM11.9557 10.7096V9.12977H13.5356V10.7096H11.9557ZM8.79601 10.7096V9.12977H10.3759V10.7096H8.79601ZM5.63628 12.2895H7.21615V13.8694H5.63628V12.2895ZM11.9557 13.8694V12.2895H13.5356V13.8694H11.9557ZM8.79601 13.8694V12.2895H10.3759V13.8694H8.79601Z" fill="#E35205"/>
</svg>