<svg width="31" height="28" viewBox="0 0 31 28" fill="none" xmlns="http://www.w3.org/2000/svg">
<g id="calendar-month-outline">
<path id="Vector" d="M9.41663 12.604H11.8808V14.8682H9.41663V12.604ZM26.6659 5.81153V21.6607C26.6659 22.9173 25.5693 23.9248 24.2017 23.9248H6.95246C5.58484 23.9248 4.48828 22.906 4.48828 21.6607V5.81153C4.48828 4.56624 5.59716 3.54737 6.95246 3.54737H8.18454V1.2832H10.6487V3.54737H20.5054V1.2832H22.9696V3.54737H24.2017C25.5693 3.54737 26.6659 4.56624 26.6659 5.81153ZM6.95246 8.07569H24.2017V5.81153H6.95246V8.07569ZM24.2017 21.6607V10.3399H6.95246V21.6607H24.2017ZM19.2733 14.8682V12.604H21.7375V14.8682H19.2733ZM14.345 14.8682V12.604H16.8092V14.8682H14.345ZM9.41663 17.1323H11.8808V19.3965H9.41663V17.1323ZM19.2733 19.3965V17.1323H21.7375V19.3965H19.2733ZM14.345 19.3965V17.1323H16.8092V19.3965H14.345Z" fill="#E35205"/>
</g>
</svg>
