<svg width="19" height="19" viewBox="0 0 19 19" fill="none" xmlns="http://www.w3.org/2000/svg">
<path d="M5.52691 8.68837H7.10677V10.2682H5.52691V8.68837ZM16.5859 3.94878V15.0078C16.5859 15.8846 15.8829 16.5877 15.0061 16.5877H3.94705C3.07023 16.5877 2.36719 15.8767 2.36719 15.0078V3.94878C2.36719 3.07986 3.07812 2.36892 3.94705 2.36892H4.73698V0.789062H6.31684V2.36892H12.6363V0.789062H14.2161V2.36892H15.0061C15.8829 2.36892 16.5859 3.07986 16.5859 3.94878ZM3.94705 5.52865H15.0061V3.94878H3.94705V5.52865ZM15.0061 15.0078V7.10851H3.94705V15.0078H15.0061ZM11.8464 10.2682V8.68837H13.4262V10.2682H11.8464ZM8.68663 10.2682V8.68837H10.2665V10.2682H8.68663ZM5.52691 11.8481H7.10677V13.428H5.52691V11.8481ZM11.8464 13.428V11.8481H13.4262V13.428H11.8464ZM8.68663 13.428V11.8481H10.2665V13.428H8.68663Z" fill="#E35205"/>
</svg>
