<svg width="23" height="23" viewBox="0 0 23 23" fill="none" xmlns="http://www.w3.org/2000/svg">
<path d="M5.41663 11.604H7.88081V13.8682H5.41663V11.604ZM22.6659 4.81153V20.6607C22.6659 21.9173 21.5693 22.9248 20.2017 22.9248H2.95246C1.58484 22.9248 0.488281 21.906 0.488281 20.6607V4.81153C0.488281 3.56624 1.59716 2.54737 2.95246 2.54737H4.18454V0.283203H6.64872V2.54737H16.5054V0.283203H18.9696V2.54737H20.2017C21.5693 2.54737 22.6659 3.56624 22.6659 4.81153ZM2.95246 7.07569H20.2017V4.81153H2.95246V7.07569ZM20.2017 20.6607V9.33986H2.95246V20.6607H20.2017ZM15.2733 13.8682V11.604H17.7375V13.8682H15.2733ZM10.345 13.8682V11.604H12.8092V13.8682H10.345ZM5.41663 16.1323H7.88081V18.3965H5.41663V16.1323ZM15.2733 18.3965V16.1323H17.7375V18.3965H15.2733ZM10.345 18.3965V16.1323H12.8092V18.3965H10.345Z" fill="#E35205"/>
</svg>
