<svg width="33" height="33" viewBox="0 0 33 33" fill="none" xmlns="http://www.w3.org/2000/svg">
<rect y="32.0833" width="32.0833" height="32.0833" rx="16.0417" transform="rotate(-90 0 32.0833)" fill="#E7EFF9"/>
<path d="M12.1753 15.4414H13.7552V17.0213H12.1753V15.4414ZM23.2344 10.7019V21.7609C23.2344 22.6377 22.5313 23.3408 21.6545 23.3408H10.5955C9.71866 23.3408 9.01562 22.6298 9.01562 21.7609V10.7019C9.01562 9.83294 9.72656 9.12201 10.5955 9.12201H11.3854V7.54214H12.9653V9.12201H19.2847V7.54214H20.8646V9.12201H21.6545C22.5313 9.12201 23.2344 9.83294 23.2344 10.7019ZM10.5955 12.2817H21.6545V10.7019H10.5955V12.2817ZM21.6545 21.7609V13.8616H10.5955V21.7609H21.6545ZM18.4948 17.0213V15.4414H20.0747V17.0213H18.4948ZM15.3351 17.0213V15.4414H16.9149V17.0213H15.3351ZM12.1753 18.6012H13.7552V20.181H12.1753V18.6012ZM18.4948 20.181V18.6012H20.0747V20.181H18.4948ZM15.3351 20.181V18.6012H16.9149V20.181H15.3351Z" fill="#E35205"/>
</svg>
