<svg width="20" height="20" viewBox="0 0 20 20" fill="none" xmlns="http://www.w3.org/2000/svg">
<g id="cart-outline">
<path id="Vector" d="M14.3218 14.8676C14.7521 14.8676 15.1648 15.0385 15.4691 15.3428C15.7734 15.6471 15.9443 16.0598 15.9443 16.4901C15.9443 16.9204 15.7734 17.3331 15.4691 17.6374C15.1648 17.9416 14.7521 18.1126 14.3218 18.1126C13.4213 18.1126 12.6993 17.3824 12.6993 16.4901C12.6993 15.5896 13.4213 14.8676 14.3218 14.8676ZM1.3418 1.88757H3.99458L4.75716 3.51007H16.7555C16.9707 3.51007 17.177 3.59554 17.3292 3.74768C17.4813 3.89982 17.5668 4.10617 17.5668 4.32132C17.5668 4.45924 17.5262 4.59715 17.4694 4.72695L14.5652 9.97573C14.2893 10.4706 13.7539 10.8113 13.1455 10.8113H7.10167L6.37155 12.1337L6.34721 12.231C6.34721 12.2848 6.36858 12.3364 6.40661 12.3744C6.44465 12.4125 6.49623 12.4338 6.55002 12.4338H15.9443V14.0563H6.2093C5.30881 14.0563 4.5868 13.3262 4.5868 12.4338C4.5868 12.1499 4.65981 11.8822 4.7815 11.655L5.8848 9.66746L2.9643 3.51007H1.3418V1.88757ZM6.2093 14.8676C6.63961 14.8676 7.0523 15.0385 7.35658 15.3428C7.66085 15.6471 7.8318 16.0598 7.8318 16.4901C7.8318 16.9204 7.66085 17.3331 7.35658 17.6374C7.0523 17.9416 6.63961 18.1126 6.2093 18.1126C5.30881 18.1126 4.5868 17.3824 4.5868 16.4901C4.5868 15.5896 5.30881 14.8676 6.2093 14.8676ZM13.5105 9.18882L15.7658 5.13257H5.51162L7.42617 9.18882H13.5105Z" fill="#F14F1B"/>
</g>
</svg>
