<svg width="77" height="77" viewBox="0 0 77 77" fill="none" xmlns="http://www.w3.org/2000/svg">
<circle cx="38.5" cy="38.5" r="38.5" fill="#003087"/>
<path d="M49.4684 26.6465C50.1704 26.6465 50.8436 26.9254 51.34 27.4217C51.8364 27.9181 52.1152 28.5914 52.1152 29.2934V45.1746C52.1152 45.8766 51.8364 46.5498 51.34 47.0462C50.8436 47.5426 50.1704 47.8215 49.4684 47.8215H30.9402L25.6465 53.1152V29.2934C25.6465 27.8243 26.8376 26.6465 28.2934 26.6465H49.4684ZM28.2934 29.2934V46.723L29.8418 45.1746H49.4684V29.2934H28.2934ZM30.9402 33.2637H46.8215V35.9105H30.9402V33.2637ZM30.9402 38.5574H42.8512V41.2043H30.9402V38.5574Z" fill="white"/>
</svg>
