<svg width="268" height="229" viewBox="0 0 268 229" fill="none" xmlns="http://www.w3.org/2000/svg">
<path d="M42.8551 54.0921C49.787 53.1623 57.8175 57.5575 63.3959 52.3172L81.399 51.4722C83.8516 55.5287 89.937 54.3455 94.2466 55.7827C100.418 60.6849 110.478 56.459 116.563 61.7834C125.607 67.2777 137.611 65.4187 144.794 75.477C148.26 73.9562 147.077 78.0979 149.951 78.0979C170.828 89.678 195.849 93.2272 212.5 113.176C214.867 112.247 214.275 114.782 215.121 115.796C222.052 120.361 229.997 124.926 239.126 121.798C247.663 119.769 251.55 111.992 254.51 104.639C258.06 104.3 260.765 102.104 264.822 102.948C270.993 107.343 262.879 112.331 263.132 117.486C257.553 124.08 254.932 135.914 243.354 135.492L232.279 134.646C229.574 130.419 222.304 133.8 218.502 130.335C215.712 129.912 213.431 130.757 211.655 132.955C211.993 134.053 210.978 135.744 212.5 136.337C210.978 137.266 211.993 139.21 211.655 140.647L212.5 141.493C212.332 158.144 192.129 157.469 193.65 174.881C199.145 179.952 201.512 183.165 205.654 189.504C203.793 195.335 200.751 200.661 197.117 205.732C191.369 209.62 192.383 216.382 191.116 222.047C193.143 222.976 190.947 224.244 191.116 225.513L185.959 228.893C183.93 226.274 184.861 222.383 183.423 219.511L177.422 221.201C168.884 205.142 191.707 198.885 186.804 184.346C175.393 171.584 154.43 167.357 156.797 146.648C158.826 143.183 164.489 137.434 156.797 135.492C150.288 136.504 144.287 133.631 138.792 134.646C121.212 133.04 104.73 128.898 90.7821 118.332C87.9924 120.445 89.8534 127.376 83.9363 125.178C76.6662 119.938 66.2693 118.501 58.2398 113.176C55.8724 113.007 53.8441 111.825 52.2381 109.795L41.0818 110.641C33.7265 112.669 35.8395 127.207 25.697 121.798C24.4281 118.923 28.2317 117.233 25.697 114.951H23.0771C22.8221 102.272 36.3474 100.835 42.8551 93.4811C37.6999 92.0444 32.5428 95.7639 27.3867 96.9471C22.7375 100.835 16.4833 103.624 10.2286 101.174C9.55286 97.6234 16.9056 96.2708 13.6941 92.6355C8.28449 93.7351 3.29666 94.6653 0 90.0998C3.97343 81.4787 15.3001 79.7029 19.6953 72.0962C18.1745 67.9545 23.6677 64.6578 25.697 60.9383C30.0927 59.3323 28.0644 55.698 27.3867 52.3172V49.781C29.5006 49.3582 31.1892 51.8945 32.5428 48.9359L31.6987 42.9342L42.8551 54.0921Z" fill="#003087"/>
<path d="M154.125 2.23882C143.694 -1.51714 131.873 -0.535187 119.938 5.08176C96.7687 15.9821 74.8312 43.713 62.6838 77.4486C50.5369 111.189 49.7643 146.54 60.6661 169.706C66.282 181.64 74.7632 189.934 85.1961 193.688C95.6275 197.444 107.448 196.462 119.383 190.847C133.304 184.299 146.326 172.357 157.5 156C157 154.5 157 153 157 152C157.113 150.223 156.474 149.31 157.5 148C157 148 157.5 146.032 158.008 145.849C156.907 146.244 161.535 140.109 161 139C160.367 137.687 159.5 135.5 156.391 135.5C145.518 154.052 128.73 173.61 114.438 180.335C105.354 184.609 96.6039 185.448 89.1321 182.755C81.6622 180.068 75.4542 173.845 71.1801 164.759C61.5421 144.279 62.4749 112.332 73.6165 81.386C84.7566 50.4411 104.402 25.2318 124.884 15.5938C133.969 11.3192 142.719 10.4817 150.191 13.1716C166.009 18.8656 174.656 39.5981 174.656 65.7199C174.656 73.0361 173.392 80.0496 172 88C175.5 89.5 180 91.5 184 93C192.601 49.3359 181 11.9149 154.125 2.23882Z" fill="white"/>
</svg>
