<svg width="35" height="36" viewBox="0 0 35 36" fill="none" xmlns="http://www.w3.org/2000/svg">
<g id="play-network-outline">
<path id="Vector" d="M21.8724 29.6667C21.8724 29.2799 21.7188 28.909 21.4453 28.6355C21.1718 28.362 20.8008 28.2083 20.4141 28.2083H18.9557V25.2917H24.7891C25.5626 25.2917 26.3045 24.9844 26.8515 24.4374C27.3984 23.8904 27.7057 23.1485 27.7057 22.375V7.79167C27.7057 7.01812 27.3984 6.27625 26.8515 5.72927C26.3045 5.18229 25.5626 4.875 24.7891 4.875H10.2057C9.43218 4.875 8.69032 5.18229 8.14333 5.72927C7.59635 6.27625 7.28906 7.01812 7.28906 7.79167V22.375C7.28906 23.1485 7.59635 23.8904 8.14333 24.4374C8.69032 24.9844 9.43218 25.2917 10.2057 25.2917H16.0391V28.2083H14.5807C14.194 28.2083 13.823 28.362 13.5495 28.6355C13.276 28.909 13.1224 29.2799 13.1224 29.6667H2.91406V32.5833H13.1224C13.1224 32.9701 13.276 33.341 13.5495 33.6145C13.823 33.888 14.194 34.0417 14.5807 34.0417H20.4141C20.8008 34.0417 21.1718 33.888 21.4453 33.6145C21.7188 33.341 21.8724 32.9701 21.8724 32.5833H32.0807V29.6667H21.8724ZM10.2057 22.375V7.79167H24.7891V22.375H10.2057ZM14.5807 20.9167V9.25L21.8724 15.0833L14.5807 20.9167Z" fill="#F14F1B"/>
</g>
</svg>
