<svg width="30" height="25" viewBox="0 0 30 25" fill="none" xmlns="http://www.w3.org/2000/svg">
<g id="facebook">
<path id="Vector" d="M14.6247 2.45703C8.01493 2.45703 2.60693 6.94703 2.60693 12.477C2.60693 17.477 7.00544 21.627 12.7499 22.377V15.377H9.69742V12.477H12.7499V10.267C12.7499 7.75703 14.5406 6.37703 17.2927 6.37703C18.6026 6.37703 19.9726 6.56703 19.9726 6.56703V9.03703H18.4584C16.9682 9.03703 16.4995 9.80703 16.4995 10.597V12.477H19.8404L19.2996 15.377H16.4995V22.377C19.3314 22.0049 21.9101 20.8025 23.7702 18.9871C25.6302 17.1716 26.6489 14.8627 26.6425 12.477C26.6425 6.94703 21.2345 2.45703 14.6247 2.45703Z" fill="#3B5998"/>
</g>
</svg>
