<svg width="53" height="54" viewBox="0 0 53 54" fill="none" xmlns="http://www.w3.org/2000/svg">
<path d="M48.3294 26.8907V44.3581C48.3294 45.5162 47.8693 46.627 47.0504 47.4459C46.2314 48.2649 45.1207 48.7249 43.9625 48.7249H9.0278C7.86964 48.7249 6.75892 48.2649 5.93998 47.4459C5.12104 46.627 4.66096 45.5162 4.66096 44.3581V26.8907C4.08188 26.8907 3.52652 26.6607 3.11705 26.2512C2.70758 25.8417 2.47754 25.2864 2.47754 24.7073V18.157C2.47754 16.9989 2.93762 15.8882 3.75656 15.0692C4.5755 14.2503 5.68622 13.7902 6.84438 13.7902H13.7658C13.5256 13.1133 13.3946 12.371 13.3946 11.6068C13.3946 9.86954 14.0848 8.20346 15.3132 6.97505C16.5416 5.74663 18.2077 5.05652 19.9449 5.05652C22.1283 5.05652 24.0497 6.14823 25.2506 7.76396V7.74213L26.4952 9.42336L27.7397 7.74213V7.76396C28.9406 6.14823 30.862 5.05652 33.0454 5.05652C34.7827 5.05652 36.4487 5.74663 37.6772 6.97505C38.9056 8.20346 39.5957 9.86954 39.5957 11.6068C39.5957 12.371 39.4647 13.1133 39.2245 13.7902H46.1459C47.3041 13.7902 48.4148 14.2503 49.2338 15.0692C50.0527 15.8882 50.5128 16.9989 50.5128 18.157V24.7073C50.5128 25.2864 50.2828 25.8417 49.8733 26.2512C49.4638 26.6607 48.9084 26.8907 48.3294 26.8907ZM9.0278 44.3581H24.3117V26.8907H9.0278V44.3581ZM43.9625 44.3581V26.8907H28.6786V44.3581H43.9625ZM19.9449 9.42336C19.3658 9.42336 18.8105 9.6534 18.401 10.0629C17.9915 10.4723 17.7615 11.0277 17.7615 11.6068C17.7615 12.1859 17.9915 12.7412 18.401 13.1507C18.8105 13.5602 19.3658 13.7902 19.9449 13.7902C20.524 13.7902 21.0793 13.5602 21.4888 13.1507C21.8983 12.7412 22.1283 12.1859 22.1283 11.6068C22.1283 11.0277 21.8983 10.4723 21.4888 10.0629C21.0793 9.6534 20.524 9.42336 19.9449 9.42336ZM33.0454 9.42336C32.4663 9.42336 31.911 9.6534 31.5015 10.0629C31.092 10.4723 30.862 11.0277 30.862 11.6068C30.862 12.1859 31.092 12.7412 31.5015 13.1507C31.911 13.5602 32.4663 13.7902 33.0454 13.7902C33.6245 13.7902 34.1799 13.5602 34.5893 13.1507C34.9988 12.7412 35.2288 12.1859 35.2288 11.6068C35.2288 11.0277 34.9988 10.4723 34.5893 10.0629C34.1799 9.6534 33.6245 9.42336 33.0454 9.42336ZM6.84438 18.157V22.5239H24.3117V18.157H6.84438ZM28.6786 18.157V22.5239H46.1459V18.157H28.6786Z" fill="#E35205"/>
</svg>
