<svg width="21" height="20" viewBox="0 0 21 20" fill="none" xmlns="http://www.w3.org/2000/svg">
<g clip-path="url(#clip0_13_501)">
<path d="M19.6739 9.71009C19.6739 8.93122 19.612 8.36285 19.4782 7.77344H10.7724V11.2889H15.8825C15.7795 12.1625 15.2232 13.4782 13.9868 14.3623L13.9695 14.48L16.7221 16.6585L16.9128 16.6779C18.6642 15.0254 19.6739 12.594 19.6739 9.71009Z" fill="#003087"/>
<path d="M10.7724 18.9724C13.2759 18.9724 15.3776 18.1303 16.9128 16.6778L13.9868 14.3622C13.2038 14.9201 12.1529 15.3095 10.7724 15.3095C8.32039 15.3095 6.23927 13.6571 5.49741 11.373L5.38867 11.3825L2.52647 13.6454L2.48904 13.7517C4.01382 16.8462 7.14584 18.9724 10.7724 18.9724Z" fill="#003087"/>
<path d="M5.4974 11.3731C5.30165 10.7837 5.18836 10.1521 5.18836 9.49955C5.18836 8.84693 5.30165 8.21543 5.4871 7.62602L5.48191 7.50049L2.58385 5.20117L2.48903 5.24725C1.8606 6.53136 1.5 7.97337 1.5 9.49955C1.5 11.0257 1.8606 12.4677 2.48903 13.7518L5.4974 11.3731Z" fill="#003087"/>
<path d="M10.7724 3.69016C12.5135 3.69016 13.688 4.45851 14.3577 5.1006L16.9746 2.49029C15.3674 0.964108 13.2759 0.0273438 10.7724 0.0273438C7.14584 0.0273438 4.01382 2.15346 2.48904 5.2479L5.48711 7.62667C6.23927 5.34267 8.3204 3.69016 10.7724 3.69016Z" fill="#003087"/>
</g>
<defs>
<clipPath id="clip0_13_501">
<rect x="1.5" width="18.1739" height="19" rx="9.08696" fill="white"/>
</clipPath>
</defs>
</svg>
