<svg width="26" height="24" viewBox="0 0 26 24" fill="none" xmlns="http://www.w3.org/2000/svg">
<g id="hand-coin-outline">
<path id="Vector" d="M16.8958 1.9397C13.981 1.9397 11.6154 4.11329 11.6154 6.79148C11.6154 9.46966 13.981 11.6433 16.8958 11.6433C19.8106 11.6433 22.1762 9.46966 22.1762 6.79148C22.1762 4.11329 19.8106 1.9397 16.8958 1.9397ZM16.8958 9.70254C15.1427 9.70254 13.7276 8.40227 13.7276 6.79148C13.7276 5.18069 15.1427 3.88041 16.8958 3.88041C18.6489 3.88041 20.064 5.18069 20.064 6.79148C20.064 8.40227 18.6489 9.70254 16.8958 9.70254ZM20.064 15.5247H17.9519C17.9519 14.3603 17.1598 13.3123 15.977 12.9047L9.4716 10.6729H1.05469V21.3468H7.39114V19.9495L14.7837 21.832L23.2323 19.4061V18.4357C23.2323 16.825 21.8171 15.5247 20.064 15.5247ZM5.27899 19.4061H3.16684V12.6136H5.27899V19.4061ZM14.752 19.8039L7.39114 17.9506V12.6136H9.09142L15.2378 14.7193C15.5968 14.8454 15.8397 15.1656 15.8397 15.5247C15.8397 15.5247 13.7276 15.4762 13.4108 15.3791L10.8973 14.6125L10.232 16.4562L12.7454 17.2228C13.284 17.3878 13.8438 17.4654 14.414 17.4654H20.064C20.4759 17.4654 20.8455 17.6983 21.0145 18.0185L14.752 19.8039Z" fill="#E35205"/>
</g>
</svg>
