<svg width="17" height="15" viewBox="0 0 17 15" fill="none" xmlns="http://www.w3.org/2000/svg">
<path fill-rule="evenodd" clip-rule="evenodd" d="M1.97723 0L0.878036 1.08126L15.0227 15L16.1219 13.9184L1.97723 0Z" fill="#525252"/>
<path d="M3.20032 3.3662L4.23492 4.38424C3.10236 5.33314 2.20051 6.51428 1.61773 7.54769L1.61595 7.55118C3.23901 10.2215 5.81431 12.7451 9.06468 12.3624C9.94204 12.259 10.7605 11.9639 11.5083 11.5416L12.5557 12.5719C11.098 13.4925 9.42705 13.9801 7.6166 13.7391C4.35204 13.3046 1.68268 10.6699 0 7.57563C0.790054 6.01137 1.87079 4.51486 3.20032 3.3662ZM5.55345 1.85747C6.4663 1.45723 7.45405 1.22184 8.50887 1.20508C8.56744 1.20473 9.26273 1.23721 9.5779 1.2882C9.77559 1.32033 9.97257 1.36049 10.1667 1.41044C13.2634 2.20427 15.5576 4.78029 17 7.43419C16.3949 8.63663 15.6023 9.81009 14.6572 10.8156L13.6538 9.82825C14.3519 9.08785 14.934 8.26364 15.3823 7.46422C15.3823 7.46422 14.9315 6.75106 14.5897 6.30334C14.37 6.01556 14.139 5.73616 13.8962 5.4669C13.7046 5.25456 12.9603 4.53337 12.7832 4.3832C11.5949 3.37772 10.1997 2.58878 8.52626 2.60205C7.87818 2.61218 7.25494 2.73791 6.66328 2.94955L5.55345 1.85747Z" fill="#525252"/>
<path fill-rule="evenodd" clip-rule="evenodd" d="M6.01662 6.13802L6.8153 6.9236L9.88952 9.94862C9.47852 10.1756 9.00434 10.3048 8.5 10.3048C6.92948 10.3048 5.6546 9.05036 5.6546 7.50496C5.6546 7.00869 5.78628 6.54245 6.01662 6.13802ZM8.44747 4.70578C8.46487 4.70543 8.48261 4.70508 8.5 4.70508C10.0705 4.70508 11.3454 5.95991 11.3454 7.50496C11.3454 7.52242 11.3454 7.53954 11.345 7.55665L8.44747 4.70578Z" fill="#525252"/>
</svg>
