<svg width="53" height="54" viewBox="0 0 53 54" fill="none" xmlns="http://www.w3.org/2000/svg">
<path d="M4.67188 11.6053H48.3403V44.3567H4.67188V11.6053ZM43.9734 39.9898V15.9722H9.03872V39.9898H43.9734ZM37.4232 18.1556C37.4232 19.3138 37.8833 20.4245 38.7022 21.2434C39.5211 22.0624 40.6319 22.5224 41.79 22.5224V33.4396C40.6319 33.4396 39.5211 33.8996 38.7022 34.7186C37.8833 35.5375 37.4232 36.6482 37.4232 37.8064H15.589C15.589 36.6482 15.1289 35.5375 14.31 34.7186C13.491 33.8996 12.3803 33.4396 11.2221 33.4396V22.5224C12.3803 22.5224 13.491 22.0624 14.31 21.2434C15.1289 20.4245 15.589 19.3138 15.589 18.1556H37.4232ZM37.4232 29.0727V26.8893C37.4232 24.4875 35.9603 22.5224 34.1481 22.5224C32.3358 22.5224 30.8729 24.4875 30.8729 26.8893V29.0727C30.8729 31.4745 32.3358 33.4396 34.1481 33.4396C35.9603 33.4396 37.4232 31.4745 37.4232 29.0727ZM34.1481 24.7059C34.4376 24.7059 34.7153 24.8209 34.92 25.0256C35.1247 25.2304 35.2398 25.508 35.2398 25.7976V30.1644C35.2398 30.454 35.1247 30.7316 34.92 30.9364C34.7153 31.1411 34.4376 31.2561 34.1481 31.2561C33.8585 31.2561 33.5808 31.1411 33.3761 30.9364C33.1714 30.7316 33.0563 30.454 33.0563 30.1644V25.7976C33.0563 25.508 33.1714 25.2304 33.3761 25.0256C33.5808 24.8209 33.8585 24.7059 34.1481 24.7059ZM28.6895 29.0727V26.8893C28.6895 24.4875 27.2266 22.5224 25.4144 22.5224C23.6021 22.5224 22.1392 24.4875 22.1392 26.8893V29.0727C22.1392 31.4745 23.6021 33.4396 25.4144 33.4396C27.2266 33.4396 28.6895 31.4745 28.6895 29.0727ZM25.4144 24.7059C25.7039 24.7059 25.9816 24.8209 26.1863 25.0256C26.3911 25.2304 26.5061 25.508 26.5061 25.7976V30.1644C26.5061 30.454 26.3911 30.7316 26.1863 30.9364C25.9816 31.1411 25.7039 31.2561 25.4144 31.2561C25.1248 31.2561 24.8471 31.1411 24.6424 30.9364C24.4377 30.7316 24.3227 30.454 24.3227 30.1644V25.7976C24.3227 25.508 24.4377 25.2304 24.6424 25.0256C24.8471 24.8209 25.1248 24.7059 25.4144 24.7059ZM17.7724 33.4396H19.9558V22.5224H17.7724L15.589 23.6142V25.7976L17.7724 24.7059V33.4396Z" fill="#E35205"/>
</svg>
