<svg width="30" height="25" viewBox="0 0 30 25" fill="none" xmlns="http://www.w3.org/2000/svg">
<path d="M10.0343 2.52734H20.1292C23.9749 2.52734 27.0995 5.12734 27.0995 8.32734V16.7273C27.0995 18.2656 26.3652 19.7409 25.058 20.8286C23.7508 21.9163 21.9778 22.5273 20.1292 22.5273H10.0343C6.18859 22.5273 3.06396 19.9273 3.06396 16.7273V8.32734C3.06396 6.78909 3.79833 5.31384 5.10552 4.22612C6.41271 3.13841 8.18563 2.52734 10.0343 2.52734ZM9.79392 4.52734C8.64649 4.52734 7.54605 4.90663 6.73469 5.58176C5.92334 6.25689 5.46752 7.17256 5.46752 8.12734V16.9273C5.46752 18.9173 7.40238 20.5273 9.79392 20.5273H20.3696C21.517 20.5273 22.6174 20.1481 23.4288 19.4729C24.2401 18.7978 24.696 17.8821 24.696 16.9273V8.12734C24.696 6.13734 22.7611 4.52734 20.3696 4.52734H9.79392ZM21.3911 6.02734C21.7895 6.02734 22.1716 6.15904 22.4533 6.39346C22.735 6.62788 22.8933 6.94582 22.8933 7.27734C22.8933 7.60886 22.735 7.92681 22.4533 8.16123C22.1716 8.39565 21.7895 8.52734 21.3911 8.52734C20.9927 8.52734 20.6106 8.39565 20.3288 8.16123C20.0471 7.92681 19.8889 7.60886 19.8889 7.27734C19.8889 6.94582 20.0471 6.62788 20.3288 6.39346C20.6106 6.15904 20.9927 6.02734 21.3911 6.02734ZM15.0817 7.52734C16.6754 7.52734 18.2038 8.05413 19.3307 8.99181C20.4576 9.92949 21.0906 11.2013 21.0906 12.5273C21.0906 13.8534 20.4576 15.1252 19.3307 16.0629C18.2038 17.0006 16.6754 17.5273 15.0817 17.5273C13.4881 17.5273 11.9597 17.0006 10.8328 16.0629C9.70593 15.1252 9.07285 13.8534 9.07285 12.5273C9.07285 11.2013 9.70593 9.92949 10.8328 8.99181C11.9597 8.05413 13.4881 7.52734 15.0817 7.52734ZM15.0817 9.52734C14.1255 9.52734 13.2085 9.84341 12.5324 10.406C11.8563 10.9686 11.4764 11.7317 11.4764 12.5273C11.4764 13.323 11.8563 14.0861 12.5324 14.6487C13.2085 15.2113 14.1255 15.5273 15.0817 15.5273C16.0379 15.5273 16.955 15.2113 17.6311 14.6487C18.3072 14.0861 18.6871 13.323 18.6871 12.5273C18.6871 11.7317 18.3072 10.9686 17.6311 10.406C16.955 9.84341 16.0379 9.52734 15.0817 9.52734Z" fill="url(#paint0_linear_1_13769)"/>
<defs>
<linearGradient id="paint0_linear_1_13769" x1="15.0817" y1="2.52734" x2="15.0817" y2="22.5273" gradientUnits="userSpaceOnUse">
<stop stop-color="#FEDA75"/>
<stop offset="0.1875" stop-color="#FA7E1E"/>
<stop offset="0.505208" stop-color="#D62976"/>
<stop offset="0.692708" stop-color="#962FBF"/>
<stop offset="1" stop-color="#4F5BD5"/>
</linearGradient>
</defs>
</svg>
