<svg width="25" height="21" viewBox="0 0 25 21" fill="none" xmlns="http://www.w3.org/2000/svg">
<path d="M7.03428 0.527344H17.1292C20.9749 0.527344 24.0995 3.12734 24.0995 6.32734V14.7273C24.0995 16.2656 23.3652 17.7409 22.058 18.8286C20.7508 19.9163 18.9779 20.5273 17.1292 20.5273H7.03428C3.18859 20.5273 0.0639648 17.9273 0.0639648 14.7273V6.32734C0.0639648 4.78909 0.798335 3.31384 2.10552 2.22612C3.41271 1.13841 5.18563 0.527344 7.03428 0.527344ZM6.79392 2.52734C5.64649 2.52734 4.54605 2.90663 3.73469 3.58176C2.92334 4.25689 2.46752 5.17256 2.46752 6.12734V14.9273C2.46752 16.9173 4.40238 18.5273 6.79392 18.5273H17.3696C18.517 18.5273 19.6174 18.1481 20.4288 17.4729C21.2402 16.7978 21.696 15.8821 21.696 14.9273V6.12734C21.696 4.13734 19.7611 2.52734 17.3696 2.52734H6.79392ZM18.3911 4.02734C18.7895 4.02734 19.1716 4.15904 19.4533 4.39346C19.735 4.62788 19.8933 4.94582 19.8933 5.27734C19.8933 5.60886 19.735 5.92681 19.4533 6.16123C19.1716 6.39565 18.7895 6.52734 18.3911 6.52734C17.9927 6.52734 17.6106 6.39565 17.3288 6.16123C17.0471 5.92681 16.8889 5.60886 16.8889 5.27734C16.8889 4.94582 17.0471 4.62788 17.3288 4.39346C17.6106 4.15904 17.9927 4.02734 18.3911 4.02734ZM12.0817 5.52734C13.6754 5.52734 15.2038 6.05413 16.3307 6.99181C17.4576 7.92949 18.0906 9.20126 18.0906 10.5273C18.0906 11.8534 17.4576 13.1252 16.3307 14.0629C15.2038 15.0006 13.6754 15.5273 12.0817 15.5273C10.4881 15.5273 8.9597 15.0006 7.83282 14.0629C6.70593 13.1252 6.07285 11.8534 6.07285 10.5273C6.07285 9.20126 6.70593 7.92949 7.83282 6.99181C8.9597 6.05413 10.4881 5.52734 12.0817 5.52734ZM12.0817 7.52734C11.1255 7.52734 10.2085 7.84341 9.53239 8.40602C8.85626 8.96863 8.47641 9.73169 8.47641 10.5273C8.47641 11.323 8.85626 12.0861 9.53239 12.6487C10.2085 13.2113 11.1255 13.5273 12.0817 13.5273C13.0379 13.5273 13.955 13.2113 14.6311 12.6487C15.3072 12.0861 15.6871 11.323 15.6871 10.5273C15.6871 9.73169 15.3072 8.96863 14.6311 8.40602C13.955 7.84341 13.0379 7.52734 12.0817 7.52734Z" fill="url(#paint0_linear_25_2)"/>
<defs>
<linearGradient id="paint0_linear_25_2" x1="12.0817" y1="0.527344" x2="12.0817" y2="20.5273" gradientUnits="userSpaceOnUse">
<stop stop-color="#FEDA75"/>
<stop offset="0.1875" stop-color="#FA7E1E"/>
<stop offset="0.505208" stop-color="#D62976"/>
<stop offset="0.692708" stop-color="#962FBF"/>
<stop offset="1" stop-color="#4F5BD5"/>
</linearGradient>
</defs>
</svg>
