<svg width="100" height="100" viewBox="0 0 100 100" fill="none" xmlns="http://www.w3.org/2000/svg">
<circle cx="50.3075" cy="49.9618" r="49.5341" fill="#003087" fill-opacity="0.1"/>
<circle cx="50.3112" cy="49.9616" r="42.7795" stroke="#003087" stroke-width="1.50103" stroke-dasharray="3 3"/>
<path d="M61.0422 45.4501C60.4156 46.169 59.5527 46.6404 58.6093 46.7793C57.6658 46.9182 56.7037 46.7154 55.8964 46.2076C55.8929 46.2063 55.8889 46.2063 55.8853 46.2076L48.048 54.0461V54.055C48.3655 54.5665 48.5638 55.1429 48.6282 55.7416C48.6926 56.3402 48.6213 56.9456 48.4198 57.5129C48.2182 58.0802 47.8916 58.5949 47.464 59.0187C47.0364 59.4426 46.5188 59.7647 45.9497 59.9612C45.3807 60.1577 44.7746 60.2236 44.1766 60.154C43.5786 60.0843 43.0039 59.8809 42.4953 59.5589C41.9866 59.2368 41.5569 58.8044 41.2382 58.2936C40.9195 57.7828 40.7198 57.2069 40.654 56.6084C40.0556 56.5426 39.4796 56.343 38.9688 56.0242C38.4581 55.7055 38.0256 55.2759 37.7036 54.7672C37.3815 54.2585 37.1781 53.6838 37.1085 53.0858C37.0388 52.4878 37.1047 51.8818 37.3012 51.3127C37.4977 50.7436 37.8199 50.2261 38.2437 49.7985C38.6675 49.3709 39.1822 49.0442 39.7495 48.8426C40.3169 48.6411 40.9223 48.5699 41.5209 48.6342C42.1195 48.6986 42.6959 48.8969 43.2074 49.2145C43.211 49.2158 43.215 49.2158 43.2186 49.2145L51.0559 41.376V41.3671C50.7384 40.8556 50.54 40.2792 50.4757 39.6806C50.4113 39.0819 50.4825 38.4765 50.6841 37.9092C50.8856 37.3419 51.2123 36.8272 51.6399 36.4034C52.0675 35.9795 52.5851 35.6574 53.1541 35.4609C53.7232 35.2644 54.3292 35.1985 54.9273 35.2681C55.5253 35.3378 56.0999 35.5412 56.6086 35.8632C57.1173 36.1853 57.5469 36.6178 57.8657 37.1285C58.1844 37.6393 58.3841 38.2153 58.4498 38.8137C59.1813 38.8907 59.8775 39.1674 60.4624 39.6135C61.0472 40.0595 61.498 40.6579 61.7657 41.343C62.0333 42.0281 62.1074 42.7736 61.9798 43.498C61.8522 44.2223 61.5278 44.8977 61.0422 45.4501Z" fill="#003087"/>
</svg>
