<svg width="100" height="100" viewBox="0 0 100 100" fill="none" xmlns="http://www.w3.org/2000/svg">
<circle cx="49.5341" cy="49.9618" r="49.5341" fill="#003087" fill-opacity="0.1"/>
<circle cx="49.5339" cy="49.9597" r="42.7795" stroke="#003087" stroke-width="1.50103" stroke-dasharray="3 3"/>
<path d="M48.356 29.1932C48.019 29.0308 47.658 28.9453 47.281 28.9453C46.9039 28.9453 46.5429 29.0308 46.206 29.1932L31.0999 36.0236C29.335 36.8187 28.0194 38.6737 28.0274 40.9135C28.0675 49.3938 31.3406 64.9097 45.1631 71.9624C46.5028 72.6463 48.0591 72.6463 49.3989 71.9624C63.2214 64.9097 66.4945 49.3938 66.5346 40.9135C66.5426 38.6737 65.2269 36.8187 63.462 36.0236L48.356 29.1932ZM39.6517 53.4117C40.0368 53.5143 40.446 53.5656 40.8631 53.5656C43.695 53.5656 45.9974 51.1121 45.9974 48.0944V42.6232H49.5433C50.514 42.6232 51.4045 43.2045 51.8377 44.1363L52.4153 45.3588H57.5496C58.2555 45.3588 58.8331 45.9743 58.8331 46.7266V49.4622C58.8331 53.2407 55.9611 56.3011 52.4153 56.3011H48.5646V60.6353C48.5646 61.2594 48.0912 61.7723 47.4976 61.7723C47.3532 61.7723 47.2088 61.7381 47.0804 61.6783L39.1624 58.0622C38.6329 57.8228 38.296 57.2671 38.296 56.6602C38.296 56.4208 38.3441 56.19 38.4484 55.9763L39.6517 53.4117ZM39.5795 42.6232H43.4303V48.0944C43.4303 49.6075 42.2831 50.83 40.8631 50.83C39.4432 50.83 38.296 49.6075 38.296 48.0944V43.991C38.296 43.2387 38.8736 42.6232 39.5795 42.6232ZM49.8481 46.7266C49.8481 46.3638 49.7129 46.0159 49.4722 45.7594C49.2315 45.5029 48.905 45.3588 48.5646 45.3588C48.2241 45.3588 47.8976 45.5029 47.6569 45.7594C47.4162 46.0159 47.281 46.3638 47.281 46.7266C47.281 47.0894 47.4162 47.4373 47.6569 47.6938C47.8976 47.9503 48.2241 48.0944 48.5646 48.0944C48.905 48.0944 49.2315 47.9503 49.4722 47.6938C49.7129 47.4373 49.8481 47.0894 49.8481 46.7266Z" fill="#E35205"/>
</svg>
