<svg xmlns="http://www.w3.org/2000/svg" width="17" height="21" viewBox="0 0 17 21" fill="none">
  <path fill-rule="evenodd" clip-rule="evenodd" d="M3.04141 3.11123C4.48919 1.66345 6.4528 0.850098 8.50027 0.850098C10.5477 0.850098 12.5114 1.66345 13.9591 3.11123C15.4069 4.55901 16.2203 6.52263 16.2203 8.5701C16.2203 10.3959 15.8323 11.5905 14.7728 12.9126L8.50027 20.1501L2.22777 12.9126C1.1682 11.5905 0.780273 10.3959 0.780273 8.5701C0.780273 6.52263 1.59363 4.55901 3.04141 3.11123ZM11.3945 8.57029C11.3945 10.1692 10.0984 11.4653 8.49949 11.4653C6.90063 11.4653 5.60449 10.1692 5.60449 8.57029C5.60449 6.97143 6.90063 5.67529 8.49949 5.67529C10.0984 5.67529 11.3945 6.97143 11.3945 8.57029Z" fill="white"/>
</svg>