<svg width="234" height="237" viewBox="0 0 234 237" fill="none" xmlns="http://www.w3.org/2000/svg">
<g filter="url(#filter0_d_1_2277)">
<path d="M232 118.5C232 182.841 180.513 235 117 235C53.4873 235 2 182.841 2 118.5C2 54.1588 53.4873 2 117 2C180.513 2 232 54.1588 232 118.5Z" fill="#F8FBFF"/>
<path d="M210.837 118.521C208.133 117.958 206.327 119.423 203.966 119.652C201.996 124.54 199.413 129.723 193.724 131.067C187.646 133.15 182.355 130.115 177.739 127.076C177.176 126.399 177.571 124.709 175.995 125.335C164.91 112.051 148.248 109.678 134.342 101.97C132.432 101.97 133.221 99.2212 130.912 100.229C126.131 93.5341 118.135 94.7652 112.112 91.1096C108.057 87.5678 101.36 90.3778 97.2508 87.117C94.3799 86.1543 90.329 86.9469 88.6983 84.243L76.7052 84.8062C72.9883 88.3012 67.6472 85.371 63.0281 85.992L55.6006 78.5623L56.1578 82.5579C55.256 84.527 54.1292 82.8389 52.7251 83.1197V84.8062C53.179 87.0592 54.5335 89.4791 51.5968 90.5432C50.2533 93.0271 46.5896 95.2192 47.6085 97.9761C45.093 102.318 39.1931 103.805 35.8946 107.76C34.7382 109.147 35.3094 111.313 37.0117 111.912C38.917 112.581 41.2045 112.143 43.6123 111.653C45.7485 114.073 40.8502 114.973 41.2997 117.34C45.4613 118.97 49.6353 117.111 52.7251 114.524C56.1578 113.734 59.5938 111.263 63.0281 112.219C58.6935 117.111 49.6885 118.067 49.8538 126.513H51.5968C53.2913 128.032 50.762 129.156 51.5968 131.067C58.3564 134.672 56.9505 124.993 61.8471 123.64L69.2839 123.08C70.345 124.436 71.7027 125.219 73.2723 125.335C78.6167 128.873 85.5448 129.828 90.3836 133.324C94.3206 134.78 93.0878 130.173 94.9367 128.758C104.229 135.799 115.205 138.557 126.92 139.622C130.57 138.946 134.565 140.86 138.907 140.188C144.026 141.484 140.248 145.302 138.907 147.615C137.33 161.402 151.284 164.222 158.88 172.715C162.148 182.397 146.951 186.562 152.643 197.255L156.629 196.133C157.595 198.05 156.974 200.632 158.323 202.375L161.756 200.133C161.642 199.283 163.108 198.439 161.756 197.818C162.594 194.047 161.926 189.547 165.754 186.957C168.173 183.579 170.195 180.03 171.44 176.154C168.675 171.931 167.101 169.785 163.438 166.415C162.426 154.823 175.887 155.275 175.995 144.182L175.433 143.622C175.658 142.666 174.976 141.371 175.995 140.751C174.976 140.356 175.658 139.225 175.433 138.5C176.613 137.039 178.139 136.475 179.988 136.759C182.527 139.065 187.365 136.812 189.169 139.622L196.545 140.188C204.244 140.462 205.997 132.59 209.71 128.198C209.542 124.767 214.946 121.445 210.837 118.521Z" fill="#E35205"/>
<path d="M158.9 93.3415C158.9 104.11 156.805 116.082 152.417 128.259C144.442 150.436 130.02 168.657 114.789 175.818C106.941 179.509 99.1932 180.149 92.3228 177.673C85.4713 175.216 79.9004 169.769 76.2133 161.929C69.0402 146.703 69.5535 123.473 77.5318 101.308C85.5039 79.1372 99.9393 60.9247 115.147 53.7493C123.002 50.0656 130.774 49.4228 137.62 51.8802C151.364 56.8339 158.9 72.9229 158.9 93.3415ZM145.222 125.677C149.22 114.615 151.122 103.517 151.122 93.6114C151.122 76.424 145.434 62.8064 135.04 59.065C130.123 57.3098 124.381 57.8605 118.414 60.6611C104.946 66.9862 92.0404 83.5511 84.7144 103.89C77.3993 124.229 76.7923 145.211 83.1195 158.663C85.9236 164.644 90.0121 168.73 94.9147 170.496C99.8284 172.264 105.572 171.715 111.539 168.914C125.004 162.581 137.919 146.01 145.222 125.677Z" fill="#F8FBFF"/>
<path d="M158.9 93.3415C158.9 104.11 156.805 116.082 152.417 128.259C144.442 150.436 130.02 168.657 114.789 175.818C106.941 179.509 99.1932 180.149 92.3228 177.673C85.4713 175.216 79.9004 169.769 76.2133 161.929C69.0402 146.703 69.5535 123.473 77.5318 101.308C85.5039 79.1372 99.9393 60.9247 115.147 53.7493C123.002 50.0656 130.774 49.4228 137.62 51.8802C151.364 56.8339 158.9 72.9229 158.9 93.3415ZM145.222 125.677C149.22 114.615 151.122 103.517 151.122 93.6114C151.122 76.424 145.434 62.8064 135.04 59.065C130.123 57.3098 124.381 57.8605 118.414 60.6611C104.946 66.9862 92.0404 83.5511 84.7144 103.89C77.3993 124.229 76.7923 145.211 83.1195 158.663C85.9236 164.644 90.0121 168.73 94.9147 170.496C99.8284 172.264 105.572 171.715 111.539 168.914C125.004 162.581 137.919 146.01 145.222 125.677Z" fill="url(#paint0_linear_1_2277)"/>
<path d="M210.837 118.521C208.133 117.958 206.327 119.423 203.966 119.652C201.996 124.54 199.413 129.723 193.724 131.067C187.646 133.15 182.355 130.115 177.739 127.076C177.176 126.399 177.571 124.709 175.995 125.335C167.511 115.17 155.764 111.39 144.483 106.723C145.167 114.785 143.621 123.079 140.202 129.549C138.19 133.358 135.005 136.847 131.3 139.702C133.706 140.04 136.241 140.601 138.907 140.188C144.026 141.484 140.248 145.302 138.907 147.615C137.33 161.402 151.284 164.222 158.88 172.715C162.148 182.397 146.951 186.562 152.643 197.255L156.629 196.133C157.595 198.05 156.974 200.632 158.323 202.375L161.756 200.133C161.642 199.283 163.108 198.439 161.756 197.818C162.594 194.047 161.926 189.547 165.754 186.957C168.173 183.579 170.195 180.03 171.44 176.154C168.675 171.931 167.101 169.785 163.438 166.415C162.426 154.823 175.887 155.275 175.995 144.182L175.433 143.622C175.658 142.666 174.976 141.371 175.995 140.751C174.976 140.356 175.658 139.225 175.433 138.5C176.613 137.039 178.139 136.475 179.988 136.759C182.527 139.065 187.365 136.812 189.169 139.622L196.545 140.188C204.244 140.462 205.997 132.59 209.71 128.198C209.542 124.767 214.946 121.445 210.837 118.521Z" fill="#E35205"/>
</g>
<defs>
<filter id="filter0_d_1_2277" x="0" y="0" width="234" height="237" filterUnits="userSpaceOnUse" color-interpolation-filters="sRGB">
<feFlood flood-opacity="0" result="BackgroundImageFix"/>
<feColorMatrix in="SourceAlpha" type="matrix" values="0 0 0 0 0 0 0 0 0 0 0 0 0 0 0 0 0 0 127 0" result="hardAlpha"/>
<feOffset/>
<feGaussianBlur stdDeviation="1"/>
<feComposite in2="hardAlpha" operator="out"/>
<feColorMatrix type="matrix" values="0 0 0 0 0 0 0 0 0 0 0 0 0 0 0 0 0 0 0.25 0"/>
<feBlend mode="normal" in2="BackgroundImageFix" result="effect1_dropShadow_1_2277"/>
<feBlend mode="normal" in="SourceGraphic" in2="effect1_dropShadow_1_2277" result="shape"/>
</filter>
<linearGradient id="paint0_linear_1_2277" x1="20.7639" y1="57.8421" x2="223.237" y2="57.8421" gradientUnits="userSpaceOnUse">
<stop stop-color="#003087"/>
<stop offset="0.498611" stop-color="#003087"/>
<stop offset="1" stop-color="#003087"/>
</linearGradient>
</defs>
</svg>

