<svg width="331" height="284" viewBox="0 0 331 284" fill="none" xmlns="http://www.w3.org/2000/svg">
<path d="M53.0989 67.0235C61.6878 65.8716 71.6379 71.3174 78.5498 64.8245L100.856 63.7774C103.895 68.8036 111.435 67.3376 116.775 69.1183C124.421 75.1923 136.886 69.9562 144.425 76.5534C155.631 83.361 170.504 81.0577 179.405 93.5202C183.7 91.6358 182.233 96.7676 185.795 96.7676C211.661 111.116 242.664 115.513 263.295 140.23C266.228 139.079 265.494 142.221 266.543 143.477C275.13 149.133 284.974 154.789 296.286 150.913C306.863 148.399 311.68 138.763 315.347 129.654C319.745 129.233 323.097 126.512 328.124 127.558C335.77 133.003 325.716 139.183 326.029 145.571C319.117 153.741 315.87 168.404 301.523 167.88L287.802 166.832C284.451 161.595 275.443 165.784 270.731 161.491C267.275 160.967 264.448 162.014 262.248 164.737C262.666 166.098 261.409 168.193 263.295 168.928C261.409 170.079 262.666 172.488 262.248 174.268L263.295 175.316C263.087 195.947 238.055 195.111 239.939 216.685C246.748 222.968 249.681 226.949 254.812 234.803C252.506 242.028 248.737 248.627 244.234 254.911C237.113 259.728 238.369 268.107 236.799 275.125C239.311 276.277 236.59 277.848 236.799 279.42L230.409 283.607C227.896 280.363 229.05 275.542 227.267 271.983L219.833 274.078C209.254 254.179 237.532 246.427 231.457 228.413C217.318 212.6 191.345 207.362 194.277 181.703C196.791 177.41 203.808 170.287 194.277 167.88C186.212 169.135 178.777 165.575 171.968 166.832C150.186 164.842 129.764 159.71 112.482 146.618C109.026 149.237 111.331 157.825 104 155.102C94.9921 148.609 82.1099 146.828 72.1611 140.23C69.2278 140.021 66.7147 138.557 64.7248 136.042L50.9017 137.089C41.7883 139.602 44.4063 157.616 31.8395 150.913C30.2673 147.352 34.9801 145.257 31.8395 142.43H28.5934C28.2774 126.72 45.0357 124.939 53.0989 115.828C46.7115 114.048 40.3216 118.656 33.933 120.122C28.1725 124.939 20.4234 128.395 12.6736 125.359C11.8363 120.96 20.9466 119.285 16.9675 114.78C10.2648 116.143 4.08467 117.295 0 111.638C4.92322 100.957 18.9573 98.7563 24.4032 89.3313C22.5188 84.1995 29.3251 80.1149 31.8395 75.5063C37.2859 73.5164 34.7728 69.0134 33.933 64.8245V61.682C36.5523 61.1581 38.6446 64.3006 40.3216 60.6349L39.2758 53.1986L53.0989 67.0235Z" fill="#003087"/>
<path d="M190.966 2.77446C178.041 -1.87929 163.394 -0.662628 148.607 6.29697C119.899 19.8028 92.7175 54.1624 77.6665 95.962C62.616 137.768 61.6588 181.568 75.1666 210.273C82.1249 225.059 92.6334 235.335 105.56 239.987C118.485 244.64 133.132 243.424 147.919 236.467C165.168 228.353 181.302 213.556 195.147 193.29C194.528 191.431 194.528 189.573 194.528 188.334C194.668 186.132 193.876 185.001 195.147 183.378C194.528 183.378 195.147 180.939 195.777 180.713C194.412 181.202 200.146 173.6 199.484 172.226C198.699 170.599 197.625 167.89 193.773 167.89C180.302 190.876 159.501 215.11 141.791 223.442C130.536 228.737 119.695 229.776 110.437 226.44C101.181 223.111 93.4895 215.401 88.1938 204.142C76.2519 178.767 77.4077 139.184 91.2125 100.841C105.016 62.4988 129.356 31.2635 154.734 19.3217C165.991 14.0254 176.833 12.9877 186.091 16.3205C205.69 23.3756 216.404 49.0639 216.404 81.4297C216.404 90.4948 214.837 99.1847 213.113 109.036C217.45 110.894 223.025 113.372 227.981 115.231C238.639 61.1293 224.264 14.7634 190.966 2.77446Z" fill="white"/>
</svg>
