<svg width="189" height="31" viewBox="0 0 189 31" fill="none" xmlns="http://www.w3.org/2000/svg">
<mask id="mask0_450_26897" style="mask-type:luminance" maskUnits="userSpaceOnUse" x="0" y="0" width="189" height="31">
<path d="M0 -1.90735e-05H189V30.3613H0V-1.90735e-05Z" fill="white"/>
</mask>
<g mask="url(#mask0_450_26897)">
<path d="M116.693 14.5185C117.556 14.5185 118.204 14.3272 118.636 13.9441C119.067 13.5611 119.283 12.9391 119.283 12.0772C119.283 11.2481 119.067 10.6456 118.636 10.2706C118.204 9.8957 117.556 9.70792 116.693 9.70792H112.567V14.5185H116.693ZM118.036 6.7882C118.804 6.7882 119.495 6.91214 120.111 7.15926C120.726 7.40668 121.254 7.7459 121.694 8.17661C122.134 8.607 122.47 9.10589 122.702 9.67204C122.933 10.2386 123.05 10.8487 123.05 11.5028C123.05 12.5079 122.838 13.3783 122.414 14.1116C121.99 14.8458 121.299 15.4038 120.339 15.7869V15.8345C120.802 15.9628 121.186 16.1579 121.49 16.4212C121.794 16.6842 122.042 16.9956 122.234 17.3544C122.426 17.7135 122.565 18.1084 122.654 18.5392C122.741 18.9699 122.801 19.4007 122.833 19.8314C122.849 20.1028 122.865 20.422 122.882 20.7888C122.897 21.1555 122.925 21.5309 122.966 21.9132C123.005 22.2965 123.069 22.6595 123.157 23.0025C123.245 23.3456 123.377 23.6369 123.553 23.876H119.787C119.579 23.3339 119.451 22.6876 119.403 21.9374C119.355 21.1875 119.283 20.4696 119.187 19.7837C119.059 18.8902 118.787 18.2366 118.372 17.8213C117.956 17.4062 117.276 17.1989 116.333 17.1989H112.567V23.876H108.801V6.7882H118.036Z" fill="white"/>
<path d="M129.393 17.4978C129.561 18.1764 129.829 18.7867 130.196 19.3289C130.564 19.8713 131.044 20.3063 131.636 20.6331C132.227 20.9604 132.947 21.1235 133.795 21.1235C134.642 21.1235 135.362 20.9604 135.953 20.6331C136.545 20.3063 137.025 19.8713 137.393 19.3289C137.761 18.7867 138.028 18.1764 138.196 17.4978C138.364 16.82 138.448 16.1221 138.448 15.4038C138.448 14.6544 138.364 13.9282 138.196 13.226C138.028 12.524 137.761 11.8977 137.393 11.3473C137.025 10.7971 136.545 10.3583 135.953 10.0311C135.362 9.70429 134.642 9.54074 133.795 9.54074C132.947 9.54074 132.227 9.70429 131.636 10.0311C131.044 10.3583 130.564 10.7971 130.196 11.3473C129.829 11.8977 129.561 12.524 129.393 13.226C129.225 13.9282 129.141 14.6544 129.141 15.4038C129.141 16.1221 129.225 16.82 129.393 17.4978ZM125.951 11.8496C126.334 10.7575 126.886 9.8037 127.606 8.98981C128.325 8.17655 129.209 7.53865 130.256 7.07564C131.304 6.61294 132.483 6.38151 133.795 6.38151C135.122 6.38151 136.305 6.61294 137.345 7.07564C138.384 7.53865 139.264 8.17655 139.983 8.98981C140.703 9.8037 141.255 10.7575 141.638 11.8496C142.022 12.9427 142.214 14.1277 142.214 15.4038C142.214 16.6482 142.022 17.8092 141.638 18.8862C141.255 19.9629 140.703 20.9008 139.983 21.6983C139.264 22.4959 138.384 23.1222 137.345 23.5768C136.305 24.0314 135.122 24.2588 133.795 24.2588C132.483 24.2588 131.304 24.0314 130.256 23.5768C129.209 23.1222 128.325 22.4959 127.606 21.6983C126.886 20.9008 126.334 19.9629 125.951 18.8862C125.567 17.8092 125.375 16.6482 125.375 15.4038C125.375 14.1277 125.567 12.9427 125.951 11.8496Z" fill="white"/>
<path d="M148.057 17.4978C148.225 18.1764 148.492 18.7867 148.86 19.3289C149.228 19.8713 149.708 20.3063 150.3 20.6331C150.891 20.9604 151.61 21.1235 152.458 21.1235C153.306 21.1235 154.026 20.9604 154.618 20.6331C155.209 20.3063 155.689 19.8713 156.057 19.3289C156.424 18.7867 156.692 18.1764 156.86 17.4978C157.028 16.82 157.112 16.1221 157.112 15.4038C157.112 14.6544 157.028 13.9282 156.86 13.226C156.692 12.524 156.424 11.8977 156.057 11.3473C155.689 10.7971 155.209 10.3583 154.618 10.0311C154.026 9.70429 153.306 9.54074 152.458 9.54074C151.61 9.54074 150.891 9.70429 150.3 10.0311C149.708 10.3583 149.228 10.7971 148.86 11.3473C148.492 11.8977 148.225 12.524 148.057 13.226C147.889 13.9282 147.805 14.6544 147.805 15.4038C147.805 16.1221 147.889 16.82 148.057 17.4978ZM144.615 11.8496C144.998 10.7575 145.55 9.8037 146.27 8.98981C146.989 8.17655 147.873 7.53865 148.92 7.07564C149.968 6.61294 151.147 6.38151 152.458 6.38151C153.786 6.38151 154.969 6.61294 156.009 7.07564C157.048 7.53865 157.928 8.17655 158.647 8.98981C159.367 9.8037 159.919 10.7575 160.303 11.8496C160.686 12.9427 160.878 14.1277 160.878 15.4038C160.878 16.6482 160.686 17.8092 160.303 18.8862C159.919 19.9629 159.367 20.9008 158.647 21.6983C157.928 22.4959 157.048 23.1222 156.009 23.5768C154.969 24.0314 153.786 24.2588 152.458 24.2588C151.147 24.2588 149.968 24.0314 148.92 23.5768C147.873 23.1222 146.989 22.4959 146.27 21.6983C145.55 20.9008 144.998 19.9629 144.615 18.8862C144.231 17.8092 144.039 16.6482 144.039 15.4038C144.039 14.1277 144.231 12.9427 144.615 11.8496Z" fill="white"/>
<path d="M168.746 6.7882L172.752 18.5393H172.8L176.59 6.7882H181.892V23.876H178.365V11.7662H178.318L174.12 23.876H171.217L167.02 11.8858H166.971V23.876H163.445V6.7882H168.746Z" fill="white"/>
<path d="M14.7457 9.80808H6.27816V6.64901H19.7588V9.61642L10.5719 20.5773H19.9989V23.7363H5.55859V20.7689L14.7457 9.80808Z" fill="white"/>
<path d="M25.4806 17.3588C25.6486 18.0374 25.9162 18.6475 26.2842 19.1899C26.6519 19.7326 27.1314 20.1672 27.7233 20.494C28.3149 20.8216 29.0345 20.9848 29.8822 20.9848C30.7299 20.9848 31.4493 20.8216 32.041 20.494C32.6326 20.1672 33.1123 19.7326 33.4803 19.1899C33.848 18.6475 34.1159 18.0374 34.2841 17.3588C34.4519 16.6813 34.5358 15.9832 34.5358 15.2648C34.5358 14.5159 34.4519 13.7894 34.2841 13.0872C34.1159 12.3855 33.848 11.7592 33.4803 11.2084C33.1123 10.6583 32.6326 10.2195 32.041 9.89241C31.4493 9.56593 30.7299 9.40191 29.8822 9.40191C29.0345 9.40191 28.3149 9.56593 27.7233 9.89241C27.1314 10.2195 26.6519 10.6583 26.2842 11.2084C25.9162 11.7592 25.6486 12.3855 25.4806 13.0872C25.3127 13.7894 25.2288 14.5159 25.2288 15.2648C25.2288 15.9832 25.3127 16.6813 25.4806 17.3588ZM22.0384 11.7115C22.4224 10.6187 22.9741 9.66518 23.6938 8.85145C24.4132 8.03773 25.2967 7.39998 26.3443 6.93697C27.3914 6.47458 28.571 6.24284 29.8822 6.24284C31.2097 6.24284 32.3927 6.47458 33.4323 6.93697C34.4717 7.39998 35.3514 8.03773 36.071 8.85145C36.7907 9.66518 37.3423 10.6187 37.7259 11.7115C38.1098 12.8044 38.3018 13.9892 38.3018 15.2648C38.3018 16.5094 38.1098 17.6703 37.7259 18.7473C37.3423 19.8239 36.7907 20.7616 36.071 21.5592C35.3514 22.3571 34.4717 22.9833 33.4323 23.4376C32.3927 23.8926 31.2097 24.1201 29.8822 24.1201C28.571 24.1201 27.3914 23.8926 26.3443 23.4376C25.2967 22.9833 24.4132 22.3571 23.6938 21.5592C22.9741 20.7616 22.4224 19.8239 22.0384 18.7473C21.6548 17.6703 21.4629 16.5094 21.4629 15.2648C21.4629 13.9892 21.6548 12.8044 22.0384 11.7115Z" fill="white"/>
<path d="M44.141 17.3588C44.3089 18.0374 44.5765 18.6475 44.9445 19.1899C45.3122 19.7326 45.792 20.1672 46.3836 20.494C46.9751 20.8216 47.6948 20.9848 48.5425 20.9848C49.3902 20.9848 50.1094 20.8216 50.7013 20.494C51.2928 20.1672 51.7726 19.7326 52.1406 19.1899C52.5083 18.6475 52.7762 18.0374 52.9444 17.3588C53.1122 16.6813 53.1961 15.9832 53.1961 15.2648C53.1961 14.5159 53.1122 13.7894 52.9444 13.0872C52.7762 12.3855 52.5083 11.7592 52.1406 11.2084C51.7726 10.6583 51.2928 10.2195 50.7013 9.89241C50.1094 9.56593 49.3902 9.40191 48.5425 9.40191C47.6948 9.40191 46.9751 9.56593 46.3836 9.89241C45.792 10.2195 45.3122 10.6583 44.9445 11.2084C44.5765 11.7592 44.3089 12.3855 44.141 13.0872C43.9731 13.7894 43.8891 14.5159 43.8891 15.2648C43.8891 15.9832 43.9731 16.6813 44.141 17.3588ZM40.6988 11.7115C41.0827 10.6187 41.6344 9.66518 42.354 8.85145C43.0735 8.03773 43.957 7.39998 45.0045 6.93697C46.0516 6.47458 47.2313 6.24284 48.5425 6.24284C49.8697 6.24284 51.053 6.47458 52.0928 6.93697C53.132 7.39998 54.0114 8.03773 54.7313 8.85145C55.4509 9.66518 56.0024 10.6187 56.3864 11.7115C56.7701 12.8044 56.9621 13.9892 56.9621 15.2648C56.9621 16.5094 56.7701 17.6703 56.3864 18.7473C56.0024 19.8239 55.4509 20.7616 54.7313 21.5592C54.0114 22.3571 53.132 22.9833 52.0928 23.4376C51.053 23.8926 49.8697 24.1201 48.5425 24.1201C47.2313 24.1201 46.0516 23.8926 45.0045 23.4376C43.957 22.9833 43.0735 22.3571 42.354 21.5592C41.6344 20.7616 41.0827 19.8239 40.6988 18.7473C40.315 17.6703 40.123 16.5094 40.123 15.2648C40.123 13.9892 40.315 12.8044 40.6988 11.7115Z" fill="white"/>
<path d="M64.8306 6.64901L68.8361 18.3993H68.8844L72.6743 6.64901H77.9756V23.7363H74.4494V11.6269H74.4014L70.2036 23.7363H67.3012L63.1034 11.7466H63.0555V23.7363H59.5293V6.64901H64.8306Z" fill="white"/>
<path d="M90.2246 23.7424C89.3014 23.4109 88.5344 22.6438 88.0063 21.5236C86.8154 18.999 86.9306 15.0607 88.3074 11.2456C89.6839 7.43058 92.1113 4.32261 94.6424 3.13441C95.765 2.60756 96.8462 2.50411 97.7696 2.83572C99.7242 3.53778 100.793 6.09358 100.793 9.31416C100.793 11.1749 100.436 13.2579 99.6868 15.333C98.31 19.1481 95.8824 22.256 93.3515 23.4442C92.2289 23.9707 91.1478 24.074 90.2246 23.7424ZM94.0314 1.83841C91.1681 3.18225 88.4573 6.60101 86.9564 10.76C85.4555 14.9197 85.3599 19.2775 86.707 22.1337C87.401 23.6048 88.4489 24.6272 89.7383 25.0903C91.0272 25.5531 92.4878 25.432 93.9626 24.74C96.8254 23.3963 99.5364 19.9777 101.037 15.8185V15.8181C103.426 9.20077 102.204 2.90624 98.2555 1.48785C96.9667 1.02499 95.5058 1.14599 94.0314 1.83841Z" fill="white"/>
<path d="M84.6804 7.94184C85.5368 7.82706 86.5292 8.36882 87.2185 7.72299L89.4432 7.61877C89.7462 8.1189 90.4983 7.97306 91.0309 8.15028C91.7932 8.75448 93.0364 8.23353 93.7883 8.88992C94.9058 9.56743 96.3893 9.33817 97.2767 10.5781C97.7051 10.3906 97.5589 10.9012 97.914 10.9012C100.494 12.3287 103.586 12.7664 105.643 15.2258C105.936 15.1111 105.863 15.4238 105.967 15.5487C106.823 16.1116 107.805 16.6743 108.934 16.2886C109.988 16.0386 110.469 15.0798 110.834 14.1733C111.273 14.1315 111.607 13.8608 112.108 13.9649C112.871 14.5068 111.868 15.1215 111.9 15.7571C111.21 16.5701 110.887 18.029 109.456 17.9768L108.087 17.8726C107.753 17.3515 106.855 17.7684 106.385 17.3412C106.04 17.2889 105.758 17.3933 105.539 17.6643C105.58 17.7996 105.455 18.0079 105.643 18.0812C105.455 18.1957 105.58 18.4353 105.539 18.6125L105.643 18.7168C105.622 20.7693 103.126 20.6861 103.314 22.8326C103.993 23.4578 104.285 23.854 104.797 24.6354C104.567 25.3542 104.191 26.0108 103.742 26.6363C103.032 27.1154 103.157 27.949 103.001 28.6475C103.251 28.762 102.98 28.9179 103.001 29.0746L102.364 29.4912C102.113 29.1685 102.228 28.6888 102.05 28.3348L101.309 28.5433C100.254 26.5631 103.074 25.7919 102.468 23.9995C101.058 22.4263 98.4675 21.905 98.7598 19.352C99.0106 18.925 99.7106 18.2163 98.7598 17.9768C97.9559 18.1018 97.2141 17.7477 96.5353 17.8726C94.3628 17.6747 92.326 17.164 90.6026 15.8613C90.2579 16.1218 90.4878 16.9765 89.7568 16.7054C88.8583 16.0594 87.5736 15.8822 86.5815 15.2258C86.2888 15.205 86.0383 15.0591 85.8398 14.809L84.4612 14.9133C83.5524 15.1632 83.8134 16.9556 82.5601 16.2886C82.4033 15.9342 82.8733 15.7259 82.5601 15.4446H82.2364C82.2049 13.8816 83.876 13.7044 84.6804 12.7978C84.0434 12.6206 83.4062 13.0792 82.769 13.2251C82.1945 13.7044 81.4216 14.0483 80.6489 13.746C80.5653 13.3083 81.4739 13.1417 81.077 12.6936C80.4085 12.8292 79.7922 12.9438 79.3848 12.3809C79.8758 11.3179 81.2754 11.099 81.8185 10.1614C81.6306 9.65068 82.3094 9.24436 82.5601 8.7857C83.1034 8.58782 82.8526 8.13972 82.769 7.72299V7.41018C83.0302 7.35814 83.2388 7.67096 83.4062 7.30611L83.3017 6.56616L84.6804 7.94184Z" fill="#F26A36"/>
<path d="M98.2555 1.42551C96.9668 0.962496 95.5059 1.08365 94.0313 1.77607C91.1681 3.1199 88.4574 6.53852 86.9565 10.6975C85.4554 14.8573 85.3599 19.2152 86.7071 22.0712C87.4011 23.5423 88.449 24.5647 89.7382 25.0278C91.0272 25.4906 92.4878 25.3695 93.9626 24.6775C95.6827 23.8701 97.347 22.3121 98.7279 20.2956C98.5997 20.1706 98.5221 19.9986 98.5358 19.788C98.5496 19.5688 98.6271 19.369 98.754 19.2077C98.7476 19.1819 98.7413 19.1562 98.7357 19.1301C98.5994 19.179 98.421 19.1332 98.3547 18.9966C98.2767 18.8346 98.2161 18.6705 98.1766 18.5007C96.8331 20.7877 95.1176 22.5524 93.3516 23.3817C92.2289 23.9082 91.1477 24.0118 90.2247 23.6799C89.3015 23.3484 88.5344 22.5813 88.0062 21.4613C86.8153 18.9367 86.9305 14.9982 88.3075 11.1831C89.6838 7.36808 92.1114 4.26027 94.6425 3.07191C95.7651 2.54506 96.8463 2.44177 97.7697 2.77338C99.7241 3.47543 100.793 6.03139 100.793 9.25166C100.793 10.1536 100.707 11.1084 100.535 12.0883C101.061 12.161 101.622 12.2438 101.905 12.6445C102.968 7.26153 101.577 2.61853 98.2555 1.42551Z" fill="white"/>
</g>
</svg>