<svg width="21" height="20" viewBox="0 0 21 20" fill="none" xmlns="http://www.w3.org/2000/svg">
<path d="M10.5241 5.88987C11.6435 5.88987 12.7171 6.29831 13.5086 7.02535C14.3002 7.75239 14.7449 8.73846 14.7449 9.76664C14.7449 10.7948 14.3002 11.7809 13.5086 12.5079C12.7171 13.235 11.6435 13.6434 10.5241 13.6434C9.4047 13.6434 8.33113 13.235 7.53958 12.5079C6.74804 11.7809 6.30335 10.7948 6.30335 9.76664C6.30335 8.73846 6.74804 7.75239 7.53958 7.02535C8.33113 6.29831 9.4047 5.88987 10.5241 5.88987ZM10.5241 7.82826C9.96441 7.82826 9.42762 8.03248 9.03185 8.396C8.63608 8.75951 8.41373 9.25255 8.41373 9.76664C8.41373 10.2807 8.63608 10.7738 9.03185 11.1373C9.42762 11.5008 9.96441 11.705 10.5241 11.705C11.0838 11.705 11.6206 11.5008 12.0164 11.1373C12.4122 10.7738 12.6345 10.2807 12.6345 9.76664C12.6345 9.25255 12.4122 8.75951 12.0164 8.396C11.6206 8.03248 11.0838 7.82826 10.5241 7.82826ZM8.41373 19.4586C8.14994 19.4586 7.92835 19.2841 7.88614 19.0515L7.49572 16.4832C6.83095 16.2409 6.26114 15.9113 5.71244 15.5237L3.08502 16.5025C2.85288 16.5801 2.56798 16.5025 2.44135 16.2893L0.330971 12.9359C0.193796 12.7227 0.257107 12.461 0.457594 12.3156L2.68405 10.7068L2.61018 9.76664L2.68405 8.79745L0.457594 7.21766C0.257107 7.07229 0.193796 6.8106 0.330971 6.59738L2.44135 3.24397C2.56798 3.03075 2.85288 2.94352 3.08502 3.03075L5.71244 3.99994C6.26114 3.62196 6.83095 3.29243 7.49572 3.05013L7.88614 0.481768C7.92835 0.249162 8.14994 0.074707 8.41373 0.074707H12.6345C12.8983 0.074707 13.1199 0.249162 13.1621 0.481768L13.5525 3.05013C14.2173 3.29243 14.7871 3.62196 15.3358 3.99994L17.9632 3.03075C18.1954 2.94352 18.4803 3.03075 18.6069 3.24397L20.7173 6.59738C20.8544 6.8106 20.7911 7.07229 20.5906 7.21766L18.3642 8.79745L18.438 9.76664L18.3642 10.7358L20.5906 12.3156C20.7911 12.461 20.8544 12.7227 20.7173 12.9359L18.6069 16.2893C18.4803 16.5025 18.1954 16.5898 17.9632 16.5025L15.3358 15.5333C14.7871 15.9113 14.2173 16.2409 13.5525 16.4832L13.1621 19.0515C13.1199 19.2841 12.8983 19.4586 12.6345 19.4586H8.41373ZM9.73272 2.01309L9.3423 4.54269C8.07607 4.78499 6.95757 5.40527 6.14507 6.26785L3.60206 5.25989L2.81067 6.51984L5.03712 8.02209C4.61505 9.15605 4.61505 10.3869 5.03712 11.5112L2.80012 13.0231L3.59151 14.2831L6.15563 13.2751C6.96812 14.128 8.07607 14.7483 9.33175 14.9809L9.72217 17.5202H11.3261L11.7165 14.9906C12.9722 14.7483 14.0801 14.128 14.8926 13.2751L17.4567 14.2831L18.2481 13.0231L16.0111 11.5209C16.4332 10.3869 16.4332 9.15605 16.0111 8.02209L18.2376 6.51984L17.4462 5.25989L14.9032 6.26785C14.0907 5.40527 12.9722 4.78499 11.7059 4.55238L11.3155 2.01309H9.73272Z" fill="#003087"/>
</svg>
