<svg width="123" height="122" viewBox="0 0 123 122" fill="none" xmlns="http://www.w3.org/2000/svg">
<g id="Group 37076">
<path id="Vector" d="M110.105 60.8062C110.105 73.7076 104.98 86.0806 95.8576 95.2033C86.7349 104.326 74.3619 109.451 61.4605 109.451C48.559 109.451 36.186 104.326 27.0633 95.2033C17.9406 86.0806 12.8155 73.7076 12.8155 60.8062C12.8155 47.9047 17.9406 35.5317 27.0633 26.409C36.186 17.2863 48.559 12.1612 61.4605 12.1612C66.0817 12.1612 70.5814 12.8301 74.8378 14.0462L84.3844 4.49966C77.3309 1.58096 69.6085 0 61.4605 0C53.4753 0 45.5683 1.5728 38.1909 4.62859C30.8136 7.68439 24.1104 12.1633 18.464 17.8097C7.06064 29.2131 0.654297 44.6794 0.654297 60.8062C0.654297 76.933 7.06064 92.3992 18.464 103.803C24.1104 109.449 30.8136 113.928 38.1909 116.984C45.5683 120.04 53.4753 121.612 61.4605 121.612C77.5873 121.612 93.0535 115.206 104.457 103.803C115.86 92.3992 122.267 76.933 122.267 60.8062M36.5907 49.1314L28.0171 57.7659L55.3798 85.1286L116.186 24.3225L107.612 15.688L55.3798 67.9205L36.5907 49.1314Z" fill="#32B2AC"/>
</g>
</svg>
