<svg width="28" height="35" viewBox="0 0 28 35" fill="none" xmlns="http://www.w3.org/2000/svg">
<path d="M7.14875 3.5H6.125C5.42881 3.5 4.76113 3.77656 4.26884 4.26885C3.77656 4.76113 3.5 5.42881 3.5 6.125V23.625C3.5 24.3212 3.77656 24.9889 4.26884 25.4812C4.76113 25.9734 5.42881 26.25 6.125 26.25H10.696V24.5H6.125C5.89294 24.5 5.67038 24.4078 5.50628 24.2437C5.34219 24.0796 5.25 23.8571 5.25 23.625V6.125C5.25 5.89294 5.34219 5.67038 5.50628 5.50628C5.67038 5.34219 5.89294 5.25 6.125 5.25H7.14875C7.32977 5.76201 7.66514 6.20528 8.10864 6.5187C8.55214 6.83213 9.08193 7.00029 9.625 7H14.875C15.4181 7.00029 15.9479 6.83213 16.3914 6.5187C16.8349 6.20528 17.1702 5.76201 17.3512 5.25H18.375C18.6071 5.25 18.8296 5.34219 18.9937 5.50628C19.1578 5.67038 19.25 5.89294 19.25 6.125V8.75H21V6.125C21 5.42881 20.7234 4.76113 20.2312 4.26885C19.7389 3.77656 19.0712 3.5 18.375 3.5H17.3512C17.1702 2.98799 16.8349 2.54473 16.3914 2.2313C15.9479 1.91787 15.4181 1.74972 14.875 1.75H9.625C9.08193 1.74972 8.55214 1.91787 8.10864 2.2313C7.66514 2.54473 7.32977 2.98799 7.14875 3.5ZM8.75 4.375C8.75 4.14294 8.84219 3.92038 9.00628 3.75628C9.17038 3.59219 9.39294 3.5 9.625 3.5H14.875C15.1071 3.5 15.3296 3.59219 15.4937 3.75628C15.6578 3.92038 15.75 4.14294 15.75 4.375C15.75 4.60706 15.6578 4.82962 15.4937 4.99372C15.3296 5.15781 15.1071 5.25 14.875 5.25H9.625C9.39294 5.25 9.17038 5.15781 9.00628 4.99372C8.84219 4.82962 8.75 4.60706 8.75 4.375ZM14.875 10.5C14.1788 10.5 13.5111 10.7766 13.0188 11.2688C12.5266 11.7611 12.25 12.4288 12.25 13.125V23.625C12.25 24.3212 12.5266 24.9889 13.0188 25.4812C13.5111 25.9734 14.1788 26.25 14.875 26.25H21.875C22.5712 26.25 23.2389 25.9734 23.7312 25.4812C24.2234 24.9889 24.5 24.3212 24.5 23.625V13.125C24.5 12.4288 24.2234 11.7611 23.7312 11.2688C23.2389 10.7766 22.5712 10.5 21.875 10.5H14.875ZM14 13.125C14 12.8929 14.0922 12.6704 14.2563 12.5063C14.4204 12.3422 14.6429 12.25 14.875 12.25H21.875C22.1071 12.25 22.3296 12.3422 22.4937 12.5063C22.6578 12.6704 22.75 12.8929 22.75 13.125V23.625C22.75 23.8571 22.6578 24.0796 22.4937 24.2437C22.3296 24.4078 22.1071 24.5 21.875 24.5H14.875C14.6429 24.5 14.4204 24.4078 14.2563 24.2437C14.0922 24.0796 14 23.8571 14 23.625V13.125Z" fill="#525252" fill-opacity="0.7"/>
<path d="M4.7114 33V27.7636H6.67504C7.07731 27.7636 7.41481 27.8386 7.68754 27.9886C7.96197 28.1386 8.16907 28.3449 8.30884 28.6074C8.45032 28.8682 8.52106 29.1648 8.52106 29.4972C8.52106 29.833 8.45032 30.1313 8.30884 30.392C8.16737 30.6528 7.95856 30.8582 7.68242 31.0082C7.40629 31.1565 7.06623 31.2307 6.66225 31.2307H5.36083V30.4509H6.53441C6.76964 30.4509 6.96225 30.4099 7.11225 30.3281C7.26225 30.2463 7.37305 30.1338 7.44464 29.9906C7.51793 29.8474 7.55458 29.683 7.55458 29.4972C7.55458 29.3114 7.51793 29.1477 7.44464 29.0063C7.37305 28.8648 7.2614 28.7548 7.1097 28.6764C6.9597 28.5963 6.76623 28.5563 6.5293 28.5563H5.65998V33H4.7114ZM10.3639 33.0793C10.115 33.0793 9.89087 33.0349 9.69144 32.9463C9.49371 32.856 9.3369 32.723 9.22099 32.5474C9.10678 32.3719 9.04968 32.1554 9.04968 31.898C9.04968 31.6764 9.09059 31.4932 9.17241 31.3483C9.25423 31.2034 9.36587 31.0875 9.50735 31.0006C9.64883 30.9136 9.8082 30.848 9.98548 30.8037C10.1645 30.7577 10.3494 30.7244 10.5403 30.704C10.7704 30.6801 10.9571 30.6588 11.1002 30.6401C11.2434 30.6196 11.3474 30.5889 11.4122 30.548C11.4787 30.5054 11.5119 30.4398 11.5119 30.3511V30.3358C11.5119 30.1432 11.4548 29.994 11.3406 29.8884C11.2264 29.7827 11.0619 29.7298 10.8471 29.7298C10.6204 29.7298 10.4406 29.7793 10.3076 29.8781C10.1764 29.977 10.0877 30.0937 10.0417 30.2284L9.17752 30.1057C9.2457 29.867 9.3582 29.6676 9.51502 29.5074C9.67184 29.3455 9.8636 29.2244 10.0903 29.1443C10.317 29.0625 10.5676 29.0216 10.842 29.0216C11.0312 29.0216 11.2196 29.0438 11.4071 29.0881C11.5946 29.1324 11.7659 29.2057 11.921 29.308C12.0761 29.4085 12.2005 29.5457 12.2943 29.7196C12.3897 29.8935 12.4375 30.1108 12.4375 30.3716V33H11.5477V32.4605H11.517C11.4608 32.5696 11.3815 32.6719 11.2792 32.7673C11.1787 32.8611 11.0517 32.9369 10.8983 32.9949C10.7466 33.0511 10.5684 33.0793 10.3639 33.0793ZM10.6042 32.3991C10.79 32.3991 10.9511 32.3625 11.0875 32.2892C11.2238 32.2142 11.3287 32.1153 11.402 31.9926C11.477 31.8699 11.5145 31.7361 11.5145 31.5912V31.1284C11.4855 31.1523 11.436 31.1744 11.3662 31.1949C11.298 31.2153 11.2213 31.2332 11.136 31.2486C11.0508 31.2639 10.9664 31.2776 10.8829 31.2895C10.7994 31.3014 10.727 31.3116 10.6656 31.3202C10.5275 31.3389 10.4039 31.3696 10.2949 31.4122C10.1858 31.4548 10.0997 31.5145 10.0366 31.5912C9.97354 31.6662 9.94201 31.7634 9.94201 31.8827C9.94201 32.0531 10.0042 32.1818 10.1287 32.2688C10.2531 32.3557 10.4116 32.3991 10.6042 32.3991ZM16.4721 30.1108L15.6284 30.2028C15.6045 30.1176 15.5627 30.0375 15.5031 29.9625C15.4451 29.8875 15.3667 29.827 15.2679 29.781C15.169 29.7349 15.048 29.7119 14.9048 29.7119C14.7122 29.7119 14.5502 29.7537 14.419 29.8372C14.2895 29.9207 14.2255 30.029 14.2272 30.1619C14.2255 30.2761 14.2673 30.369 14.3525 30.4406C14.4395 30.5122 14.5826 30.571 14.7821 30.617L15.452 30.7602C15.8235 30.8403 16.0997 30.9673 16.2804 31.1412C16.4627 31.3151 16.5548 31.5426 16.5565 31.8239C16.5548 32.071 16.4824 32.2892 16.3392 32.4784C16.1977 32.6659 16.0008 32.8125 15.7485 32.9182C15.4963 33.0239 15.2065 33.0767 14.8792 33.0767C14.3985 33.0767 14.0116 32.9761 13.7184 32.775C13.4252 32.5722 13.2505 32.2901 13.1943 31.9287L14.0968 31.8418C14.1377 32.019 14.2247 32.1528 14.3576 32.2432C14.4906 32.3335 14.6636 32.3787 14.8767 32.3787C15.0966 32.3787 15.273 32.3335 15.4059 32.2432C15.5406 32.1528 15.6079 32.0412 15.6079 31.9082C15.6079 31.7957 15.5645 31.7028 15.4775 31.6295C15.3923 31.5563 15.2593 31.5 15.0787 31.4608L14.4088 31.3202C14.0321 31.2418 13.7534 31.1097 13.5727 30.9239C13.392 30.7364 13.3025 30.4994 13.3042 30.2131C13.3025 29.971 13.3681 29.7614 13.5011 29.5841C13.6358 29.4051 13.8224 29.267 14.061 29.1699C14.3014 29.071 14.5784 29.0216 14.892 29.0216C15.3522 29.0216 15.7145 29.1196 15.9787 29.3156C16.2446 29.5116 16.4091 29.7767 16.4721 30.1108ZM19.2808 29.0727V29.7886H17.0231V29.0727H19.2808ZM17.5805 28.1318H18.5061V31.8188C18.5061 31.9432 18.5248 32.0386 18.5623 32.1051C18.6015 32.1699 18.6527 32.2142 18.7157 32.2381C18.7788 32.2619 18.8487 32.2739 18.9254 32.2739C18.9833 32.2739 19.0362 32.2696 19.0839 32.2611C19.1333 32.2526 19.1708 32.2449 19.1964 32.2381L19.3524 32.9616C19.3029 32.9787 19.2322 32.9974 19.1402 33.0179C19.0498 33.0384 18.939 33.0503 18.8078 33.0537C18.576 33.0605 18.3672 33.0256 18.1814 32.9489C17.9956 32.8705 17.8481 32.7494 17.739 32.5858C17.6316 32.4222 17.5788 32.2176 17.5805 31.9722V28.1318ZM21.7513 33.0767C21.3576 33.0767 21.0175 32.9949 20.7311 32.8313C20.4465 32.6659 20.2275 32.4324 20.074 32.1307C19.9206 31.8273 19.8439 31.4702 19.8439 31.0594C19.8439 30.6554 19.9206 30.3009 20.074 29.9957C20.2292 29.6889 20.4456 29.4503 20.7235 29.2798C21.0013 29.1077 21.3277 29.0216 21.7027 29.0216C21.9448 29.0216 22.1732 29.0608 22.388 29.1392C22.6044 29.2159 22.7953 29.3352 22.9607 29.4972C23.1277 29.6591 23.259 29.8653 23.3544 30.1159C23.4499 30.3648 23.4976 30.6614 23.4976 31.0057V31.2895H20.2786V30.6656H22.6104C22.6087 30.4884 22.5703 30.3307 22.4953 30.1926C22.4203 30.0528 22.3155 29.9429 22.1809 29.8628C22.0479 29.7827 21.8928 29.7426 21.7155 29.7426C21.5263 29.7426 21.3601 29.7886 21.2169 29.8807C21.0738 29.971 20.9621 30.0903 20.882 30.2386C20.8036 30.3852 20.7635 30.5463 20.7618 30.7219V31.2665C20.7618 31.4949 20.8036 31.6909 20.8871 31.8545C20.9706 32.0165 21.0874 32.1409 21.2374 32.2278C21.3874 32.3131 21.563 32.3557 21.7641 32.3557C21.8988 32.3557 22.0206 32.3369 22.1297 32.2994C22.2388 32.2602 22.3334 32.2031 22.4135 32.1281C22.4936 32.0531 22.5542 31.9602 22.5951 31.8494L23.4593 31.9466C23.4047 32.175 23.3007 32.3744 23.1473 32.5449C22.9956 32.7136 22.8013 32.8449 22.5644 32.9386C22.3275 33.0307 22.0564 33.0767 21.7513 33.0767Z" fill="#525252" fill-opacity="0.7"/>
</svg>
