<svg width="103" height="103" viewBox="0 0 103 103" fill="none" xmlns="http://www.w3.org/2000/svg">
<path d="M92.5 51.5C92.5 62.3739 88.1804 72.8024 80.4914 80.4914C72.8024 88.1804 62.3739 92.5 51.5 92.5C40.6261 92.5 30.1976 88.1804 22.5086 80.4914C14.8196 72.8024 10.5 62.3739 10.5 51.5C10.5 40.6261 14.8196 30.1976 22.5086 22.5086C30.1976 14.8196 40.6261 10.5 51.5 10.5C55.395 10.5 59.1875 11.0637 62.775 12.0887L70.8213 4.0425C64.8763 1.5825 58.3675 0.25 51.5 0.25C44.7698 0.25 38.1054 1.57562 31.8875 4.15117C25.6695 6.72673 20.0198 10.5018 15.2608 15.2608C5.64954 24.872 0.25 37.9077 0.25 51.5C0.25 65.0923 5.64954 78.128 15.2608 87.7392C20.0198 92.4982 25.6695 96.2733 31.8875 98.8488C38.1054 101.424 44.7698 102.75 51.5 102.75C65.0923 102.75 78.128 97.3505 87.7392 87.7392C97.3505 78.128 102.75 65.0923 102.75 51.5M30.5387 41.66L23.3125 48.9375L46.375 72L97.625 20.75L90.3988 13.4725L46.375 57.4963L30.5387 41.66Z" fill="#32B2AC"/>
</svg>
