<svg xmlns="http://www.w3.org/2000/svg" width="22" height="22" viewBox="0 0 22 22" fill="none">
    <path d="M15.9612 18.6446L11.8665 14.55C11.0113 15.1059 10.0063 15.4373 8.91581 15.4373C5.9651 15.4373 3.57031 13.0426 3.57031 10.0918C3.57031 7.14112 5.9651 4.74634 8.91581 4.74634C11.8665 4.74634 14.2613 7.14112 14.2613 10.0918C14.2613 11.1823 13.9299 12.1873 13.374 13.0319L17.4686 17.1372L15.9612 18.6446ZM12.1231 10.0918C12.1231 8.32782 10.6798 6.88454 8.91581 6.88454C7.1518 6.88454 5.70851 8.32782 5.70851 10.0918C5.70851 11.8559 7.1518 13.2991 8.91581 13.2991C10.6798 13.2991 12.1231 11.8559 12.1231 10.0918Z" fill="#E35205"/>
</svg>