<svg width="34" height="34" viewBox="0 0 34 34" fill="none" xmlns="http://www.w3.org/2000/svg">
<path d="M23.0564 11.9381L16.6771 18.3036L10.2978 11.9381L8.33812 13.8978L16.6771 22.2368L25.0161 13.8978L23.0564 11.9381Z" fill="black"/>
<rect x="1.39108" y="32.6607" width="30.5763" height="30.5763" rx="15.2881" transform="rotate(-90 1.39108 32.6607)" fill="#E7EFF9"/>
<path d="M22.1181 24.3226L18.0235 20.2279C17.1682 20.7838 16.1632 21.1153 15.0728 21.1153C12.122 21.1153 9.72726 18.7205 9.72726 15.7698C9.72726 12.819 12.122 10.4243 15.0728 10.4243C18.0235 10.4243 20.4183 12.819 20.4183 15.7698C20.4183 16.8602 20.0868 17.8652 19.5309 18.7098L23.6256 22.8151L22.1181 24.3226ZM18.2801 15.7698C18.2801 14.0057 16.8368 12.5625 15.0728 12.5625C13.3087 12.5625 11.8655 14.0057 11.8655 15.7698C11.8655 17.5338 13.3087 18.9771 15.0728 18.9771C16.8368 18.9771 18.2801 17.5338 18.2801 15.7698Z" fill="#003087"/>
</svg>
