<svg width="97" height="94" viewBox="0 0 97 94" fill="none" xmlns="http://www.w3.org/2000/svg">
<g filter="url(#filter0_d_22_2201)">
<ellipse cx="48.8184" cy="45.3562" rx="24.9093" ry="25.237" fill="white"/>
</g>
<path d="M69.1412 45.3612C68.5555 45.2392 68.1644 45.5566 67.653 45.6063C67.2262 46.6652 66.6668 47.788 65.4345 48.079C64.118 48.5302 62.9719 47.8728 61.9722 47.2144C61.8502 47.0677 61.9357 46.7017 61.5943 46.8372C59.1933 43.9596 55.5842 43.4455 52.5721 41.7759C52.1584 41.7759 52.3294 41.1803 51.8292 41.3987C50.7936 39.9484 49.0618 40.2151 47.7572 39.4232C46.8787 38.6559 45.4281 39.2647 44.5382 38.5583C43.9163 38.3497 43.0389 38.5214 42.6857 37.9357L40.0879 38.0577C39.2828 38.8148 38.1259 38.18 37.1254 38.3146L35.5166 36.7051L35.6373 37.5707C35.442 37.9972 35.1979 37.6315 34.8938 37.6923V38.0577C34.9921 38.5457 35.2855 39.07 34.6494 39.3005C34.3584 39.8386 33.5648 40.3134 33.7855 40.9106C33.2407 41.8513 31.9627 42.1733 31.2482 43.0301C30.9978 43.3306 31.1215 43.7997 31.4902 43.9295C31.9029 44.0745 32.3984 43.9795 32.9199 43.8734C33.3826 44.3976 32.3217 44.5926 32.419 45.1054C33.3204 45.4586 34.2245 45.0557 34.8938 44.4953C35.6373 44.3243 36.3816 43.7889 37.1254 43.9961C36.1865 45.0557 34.236 45.2629 34.2719 47.0924H34.6494C35.0164 47.4216 34.4686 47.665 34.6494 48.079C36.1135 48.8601 35.809 46.7632 36.8696 46.4702L38.4805 46.3488C38.7103 46.6425 39.0044 46.8122 39.3444 46.8372C40.502 47.6038 42.0026 47.8106 43.0507 48.568C43.9035 48.8834 43.6364 47.8853 44.0369 47.5788C46.0497 49.1041 48.4271 49.7016 50.9647 49.9321C51.7552 49.7858 52.6205 50.2005 53.5611 50.0548C54.6697 50.3357 53.8514 51.1628 53.5611 51.6637C53.2193 54.6504 56.242 55.2612 57.8873 57.1012C58.595 59.1984 55.3034 60.1008 56.5363 62.417L57.3996 62.174C57.6088 62.5894 57.4742 63.1488 57.7666 63.5263L58.5102 63.0406C58.4855 62.8564 58.8029 62.6735 58.5102 62.539C58.6917 61.7221 58.547 60.7474 59.3761 60.1863C59.9 59.4546 60.338 58.6857 60.6077 57.8461C60.0088 56.9312 59.6678 56.4664 58.8745 55.7364C58.6552 53.2252 61.571 53.3232 61.5943 50.9201L61.4726 50.7988C61.5213 50.5916 61.3736 50.311 61.5943 50.1769C61.3736 50.0913 61.5213 49.8463 61.4726 49.6891C61.7281 49.3728 62.0587 49.2504 62.4592 49.312C63.0091 49.8115 64.0572 49.3234 64.4479 49.9321L66.0456 50.0548C67.7132 50.1143 68.0928 48.4089 68.8972 47.4574C68.8606 46.7142 70.0311 45.9946 69.1412 45.3612Z" fill="#E35205"/>
<path d="M57.8913 39.9073C57.8913 42.2401 57.4373 44.8334 56.4869 47.4714C54.7595 52.2756 51.6358 56.2226 48.3367 57.7739C46.6367 58.5736 44.9585 58.7122 43.4704 58.1758C41.9864 57.6435 40.7797 56.4635 39.9811 54.7652C38.4273 51.4667 38.5385 46.4345 40.2666 41.6331C41.9934 36.8303 45.1202 32.885 48.4141 31.3306C50.1156 30.5326 51.799 30.3933 53.2818 30.9257C56.2588 31.9988 57.8913 35.4841 57.8913 39.9073ZM54.9285 46.9121C55.7944 44.5157 56.2064 42.1117 56.2064 39.9658C56.2064 36.2425 54.9745 33.2926 52.7231 32.4821C51.6581 32.1019 50.4143 32.2212 49.1219 32.8279C46.2047 34.198 43.4092 37.7864 41.8224 42.1924C40.238 46.5984 40.1065 51.1436 41.477 54.0578C42.0843 55.3533 42.9699 56.2384 44.0318 56.621C45.0961 57.004 46.3403 56.885 47.6327 56.2783C50.5492 54.9064 53.3467 51.3167 54.9285 46.9121Z" fill="white"/>
<path d="M57.8913 39.9073C57.8913 42.2401 57.4373 44.8334 56.4869 47.4714C54.7595 52.2756 51.6358 56.2226 48.3367 57.7739C46.6367 58.5736 44.9585 58.7122 43.4704 58.1758C41.9864 57.6435 40.7797 56.4635 39.9811 54.7652C38.4273 51.4667 38.5385 46.4345 40.2666 41.6331C41.9934 36.8303 45.1202 32.885 48.4141 31.3306C50.1156 30.5326 51.799 30.3933 53.2818 30.9257C56.2588 31.9988 57.8913 35.4841 57.8913 39.9073ZM54.9285 46.9121C55.7944 44.5157 56.2064 42.1117 56.2064 39.9658C56.2064 36.2425 54.9745 33.2926 52.7231 32.4821C51.6581 32.1019 50.4143 32.2212 49.1219 32.8279C46.2047 34.198 43.4092 37.7864 41.8224 42.1924C40.238 46.5984 40.1065 51.1436 41.477 54.0578C42.0843 55.3533 42.9699 56.2384 44.0318 56.621C45.0961 57.004 46.3403 56.885 47.6327 56.2783C50.5492 54.9064 53.3467 51.3167 54.9285 46.9121Z" fill="url(#paint0_linear_22_2201)"/>
<path d="M69.1379 45.3615C68.5523 45.2395 68.1612 45.5569 67.6498 45.6066C67.2229 46.6655 66.6636 47.7883 65.4313 48.0793C64.1148 48.5305 62.9687 47.8731 61.9689 47.2147C61.847 47.068 61.9324 46.702 61.5911 46.8375C59.7535 44.6355 57.2091 43.8166 54.7655 42.8057C54.9138 44.552 54.5789 46.3488 53.8384 47.7504C53.4024 48.5754 52.7125 49.3312 51.9102 49.9497C52.4313 50.023 52.9802 50.1447 53.5579 50.0551C54.6665 50.336 53.8482 51.163 53.5579 51.6639C53.2161 54.6507 56.2387 55.2615 57.8841 57.1015C58.5918 59.1987 55.3002 60.1011 56.5331 62.4173L57.3963 62.1743C57.6055 62.5897 57.471 63.149 57.7634 63.5266L58.5069 63.0409C58.4823 62.8567 58.7997 62.6738 58.5069 62.5393C58.6885 61.7224 58.5438 60.7477 59.3729 60.1866C59.8968 59.4549 60.3348 58.6859 60.6045 57.8464C60.0056 56.9314 59.6646 56.4667 58.8713 55.7367C58.652 53.2254 61.5677 53.3235 61.5911 50.9204L61.4694 50.799C61.5181 50.5918 61.3704 50.3113 61.5911 50.1771C61.3704 50.0916 61.5181 49.8466 61.4694 49.6894C61.7249 49.3731 62.0555 49.2507 62.456 49.3122C63.0059 49.8118 64.054 49.3237 64.4447 49.9324L66.0424 50.0551C67.71 50.1146 68.0895 48.4091 68.894 47.4577C68.8574 46.7145 70.0279 45.9949 69.1379 45.3615Z" fill="#E35205"/>
<defs>
<filter id="filter0_d_22_2201" x="0.90918" y="-2.88086" width="95.8184" height="96.4736" filterUnits="userSpaceOnUse" color-interpolation-filters="sRGB">
<feFlood flood-opacity="0" result="BackgroundImageFix"/>
<feColorMatrix in="SourceAlpha" type="matrix" values="0 0 0 0 0 0 0 0 0 0 0 0 0 0 0 0 0 0 127 0" result="hardAlpha"/>
<feOffset/>
<feGaussianBlur stdDeviation="11.5"/>
<feComposite in2="hardAlpha" operator="out"/>
<feColorMatrix type="matrix" values="0 0 0 0 0 0 0 0 0 0 0 0 0 0 0 0 0 0 0.1 0"/>
<feBlend mode="normal" in2="BackgroundImageFix" result="effect1_dropShadow_22_2201"/>
<feBlend mode="normal" in="SourceGraphic" in2="effect1_dropShadow_22_2201" result="shape"/>
</filter>
<linearGradient id="paint0_linear_22_2201" x1="40.4389" y1="37.2922" x2="57.1672" y2="37.2922" gradientUnits="userSpaceOnUse">
<stop stop-color="#001838"/>
<stop offset="0.498611" stop-color="#003087"/>
<stop offset="1" stop-color="#6899DB"/>
</linearGradient>
</defs>
</svg>
