<svg width="81" height="81" viewBox="0 0 81 81" fill="none" xmlns="http://www.w3.org/2000/svg">
<circle cx="40.8838" cy="40.4207" r="40.0301" fill="white"/>
<circle cx="40.8842" cy="40.4201" r="34.5714" stroke="#E35205" stroke-width="1.21303" stroke-dasharray="2.43 2.43"/>
<path d="M49.5622 36.7755C49.0558 37.3565 48.3585 37.7374 47.5961 37.8496C46.8336 37.9619 46.0561 37.7981 45.4038 37.3877C45.4009 37.3866 45.3977 37.3866 45.3948 37.3877L39.0612 43.7222V43.7294C39.3178 44.1428 39.4781 44.6086 39.5301 45.0924C39.5821 45.5761 39.5245 46.0654 39.3617 46.5239C39.1988 46.9823 38.9348 47.3982 38.5892 47.7408C38.2437 48.0833 37.8254 48.3436 37.3655 48.5024C36.9056 48.6612 36.4159 48.7145 35.9326 48.6582C35.4493 48.6019 34.9849 48.4375 34.5739 48.1773C34.1628 47.917 33.8156 47.5675 33.558 47.1547C33.3004 46.742 33.139 46.2765 33.0859 45.7929C32.6023 45.7397 32.1368 45.5784 31.724 45.3208C31.3113 45.0632 30.9618 44.716 30.7015 44.3049C30.4413 43.8939 30.2769 43.4295 30.2206 42.9462C30.1643 42.4629 30.2176 41.9732 30.3764 41.5133C30.5352 41.0534 30.7955 40.6351 31.138 40.2896C31.4806 39.944 31.8965 39.68 32.3549 39.5171C32.8134 39.3543 33.3027 39.2967 33.7864 39.3487C34.2702 39.4007 34.736 39.561 35.1494 39.8176C35.1523 39.8187 35.1555 39.8187 35.1584 39.8176L41.492 33.4831V33.4759C41.2354 33.0626 41.0751 32.5967 41.0231 32.113C40.9711 31.6292 41.0286 31.14 41.1915 30.6815C41.3544 30.223 41.6184 29.8071 41.9639 29.4646C42.3095 29.1221 42.7277 28.8617 43.1876 28.7029C43.6475 28.5441 44.1373 28.4909 44.6205 28.5472C45.1038 28.6034 45.5682 28.7678 45.9793 29.0281C46.3904 29.2883 46.7376 29.6378 46.9952 30.0506C47.2528 30.4633 47.4141 30.9288 47.4673 31.4124C48.0584 31.4747 48.621 31.6983 49.0936 32.0587C49.5662 32.4192 49.9306 32.9028 50.1469 33.4564C50.3631 34.0101 50.423 34.6125 50.3199 35.1979C50.2168 35.7833 49.9547 36.3291 49.5622 36.7755Z" fill="#003087"/>
</svg>
