<svg width="81" height="81" viewBox="0 0 81 81" fill="none" xmlns="http://www.w3.org/2000/svg">
<circle cx="40.6215" cy="40.6707" r="40.0301" fill="white"/>
<circle cx="40.6219" cy="40.6701" r="34.5714" stroke="#E35205" stroke-width="1.21303" stroke-dasharray="2.43 2.43"/>
<path d="M39.669 23.8898C39.3967 23.7585 39.105 23.6895 38.8003 23.6895C38.4956 23.6895 38.2038 23.7585 37.9316 23.8898L25.7239 29.4097C24.2976 30.0522 23.2344 31.5513 23.2408 33.3613C23.2733 40.2145 25.9184 52.7534 37.0888 58.4529C38.1714 59.0056 39.4292 59.0056 40.5118 58.4529C51.6822 52.7534 54.3273 40.2145 54.3597 33.3613C54.3662 31.5513 53.303 30.0522 51.8767 29.4097L39.669 23.8898ZM32.6349 43.4615C32.946 43.5444 33.2767 43.5859 33.6138 43.5859C35.9023 43.5859 37.763 41.6031 37.763 39.1644V34.743H40.6285C41.413 34.743 42.1326 35.2128 42.4827 35.9658L42.9495 36.9537H47.0987C47.6692 36.9537 48.136 37.4511 48.136 38.0591V40.2698C48.136 43.3233 45.815 45.7966 42.9495 45.7966H39.8376V49.2992C39.8376 49.8035 39.4551 50.218 38.9753 50.218C38.8586 50.218 38.7419 50.1904 38.6382 50.142L32.2394 47.2197C31.8115 47.0263 31.5392 46.5772 31.5392 46.0867C31.5392 45.8933 31.5781 45.7068 31.6624 45.534L32.6349 43.4615ZM32.5765 34.743H35.6884V39.1644C35.6884 40.3872 34.7613 41.3751 33.6138 41.3751C32.4663 41.3751 31.5392 40.3872 31.5392 39.1644V35.8484C31.5392 35.2404 32.006 34.743 32.5765 34.743ZM40.8749 38.0591C40.8749 37.7659 40.7656 37.4848 40.5711 37.2775C40.3765 37.0702 40.1127 36.9537 39.8376 36.9537C39.5625 36.9537 39.2986 37.0702 39.1041 37.2775C38.9096 37.4848 38.8003 37.7659 38.8003 38.0591C38.8003 38.3522 38.9096 38.6334 39.1041 38.8407C39.2986 39.048 39.5625 39.1644 39.8376 39.1644C40.1127 39.1644 40.3765 39.048 40.5711 38.8407C40.7656 38.6334 40.8749 38.3522 40.8749 38.0591Z" fill="#E35205"/>
</svg>
