<svg xmlns="http://www.w3.org/2000/svg" width="147" height="147" viewBox="0 0 147 147" fill="none">
  <g clip-path="url(#clip0_441_71419)">
    <path d="M73.5 0C32.9705 0 0 32.9705 0 73.5C0 114.03 32.9705 147 73.5 147C114.03 147 147 114.03 147 73.5C147 32.9705 114.03 0 73.5 0Z" fill="#32B2AC"/>
    <path d="M110.754 57.9239L70.9411 97.7356C69.7466 98.93 68.1788 99.5312 66.6109 99.5312C65.043 99.5312 63.4751 98.93 62.2807 97.7356L42.3748 77.8297C39.9792 75.4353 39.9792 71.5638 42.3748 69.1693C44.7692 66.7738 48.6396 66.7738 51.0352 69.1693L66.6109 84.745L102.094 49.2635C104.488 46.8679 108.358 46.8679 110.754 49.2635C113.148 51.6579 113.148 55.5283 110.754 57.9239Z" fill="white"/>
  </g>
  <defs>
    <clipPath id="clip0_441_71419">
      <rect width="147" height="147" fill="white"/>
    </clipPath>
  </defs>
</svg>