<svg width="18" height="18" viewBox="0 0 18 18" fill="none" xmlns="http://www.w3.org/2000/svg">
<path d="M12.2941 14.25L9.42156 11.3775C8.82156 11.7675 8.11656 12 7.35156 12C5.28156 12 3.60156 10.32 3.60156 8.25C3.60156 6.18 5.28156 4.5 7.35156 4.5C9.42156 4.5 11.1016 6.18 11.1016 8.25C11.1016 9.015 10.8691 9.72 10.4791 10.3125L13.3516 13.1925L12.2941 14.25ZM9.60156 8.25C9.60156 7.0125 8.58906 6 7.35156 6C6.11406 6 5.10156 7.0125 5.10156 8.25C5.10156 9.4875 6.11406 10.5 7.35156 10.5C8.58906 10.5 9.60156 9.4875 9.60156 8.25Z" fill="#E35205"/>
</svg>
