<svg width="30" height="25" viewBox="0 0 30 25" fill="none" xmlns="http://www.w3.org/2000/svg">
<g id="twitter">
<path id="Vector" d="M27.3101 6.46094C26.3848 6.81094 25.3873 7.04094 24.3538 7.15094C25.4113 6.62094 26.2285 5.78094 26.6131 4.77094C25.6156 5.27094 24.51 5.62094 23.3443 5.82094C22.3949 4.96094 21.0609 4.46094 19.5467 4.46094C16.7225 4.46094 14.4151 6.38094 14.4151 8.75094C14.4151 9.09094 14.4631 9.42094 14.5473 9.73094C10.2689 9.55094 6.45929 7.84094 3.92354 5.25094C3.47888 5.88094 3.22651 6.62094 3.22651 7.40094C3.22651 8.89094 4.12784 10.2109 5.52191 10.9609C4.66864 10.9609 3.87547 10.7609 3.17844 10.4609C3.17844 10.4609 3.17844 10.4609 3.17844 10.4909C3.17844 12.5709 4.95707 14.3109 7.31255 14.7009C6.87991 14.8009 6.42324 14.8509 5.95455 14.8509C5.63007 14.8509 5.30559 14.8209 4.99312 14.7709C5.64208 16.4609 7.52887 17.7209 9.80023 17.7509C8.04564 18.9109 5.82235 19.5909 3.39476 19.5909C2.98615 19.5909 2.57755 19.5709 2.16895 19.5309C4.45232 20.7509 7.16834 21.4609 10.0766 21.4609C19.5467 21.4609 24.7504 14.9209 24.7504 9.25094C24.7504 9.06094 24.7503 8.88094 24.7383 8.69094C25.7478 8.09094 26.6131 7.33094 27.3101 6.46094Z" fill="#00ACEE"/>
</g>
</svg>
