<svg width="50" height="50" viewBox="0 0 50 50" fill="none" xmlns="http://www.w3.org/2000/svg">
<mask id="mask0_1_39237" style="mask-type:luminance" maskUnits="userSpaceOnUse" x="0" y="0" width="50" height="50">
<path d="M49.0306 31.8706C45.236 45.1423 31.401 52.8253 18.1294 49.0306C4.8575 45.2358 -2.82521 31.401 0.969357 18.1293C4.76392 4.85758 18.5991 -2.82537 31.8706 0.969292C45.1423 4.76396 52.8253 18.5989 49.0306 31.8706Z" fill="white"/>
</mask>
<g mask="url(#mask0_1_39237)">
<path d="M49.0306 31.8706C45.236 45.1423 31.401 52.8253 18.1294 49.0306C4.8575 45.2358 -2.82521 31.401 0.969357 18.1293C4.76392 4.85758 18.5991 -2.82537 31.8706 0.969292C45.1423 4.76396 52.8253 18.5989 49.0306 31.8706Z" fill="url(#paint0_linear_1_39237)"/>
</g>
<path d="M48.1205 24.9179C48.124 25.8669 48.0718 26.8061 47.9629 27.7256C47.8412 28.7608 47.6505 29.7759 47.3937 30.7653C47.2868 31.1911 47.1661 31.6099 47.0326 32.0253V32.0287C46.7882 32.7969 46.5043 33.5528 46.1806 34.2855C45.4814 35.8791 44.6072 37.378 43.5838 38.7592C42.7151 39.932 41.737 41.0193 40.6667 42.0019C36.568 45.7823 31.097 48.0982 25.084 48.12C19.0649 48.1417 13.5709 45.8612 9.44547 42.1034C8.38453 41.1387 7.4152 40.0783 6.54786 38.9311C4.92913 36.7921 3.67493 34.3649 2.87826 31.7385C2.50465 30.5111 2.22994 29.2432 2.06384 27.9394C1.94528 27.0037 1.88256 26.0522 1.87906 25.0834C1.83343 12.3128 12.1484 1.92716 24.9189 1.88134C37.6861 1.83551 48.0752 12.1478 48.1205 24.9179Z" fill="#292C2B"/>
<mask id="mask1_1_39237" style="mask-type:luminance" maskUnits="userSpaceOnUse" x="1" y="1" width="48" height="48">
<path d="M47.562 30.2263L47.322 30.1706C44.8514 40.7963 35.4034 47.9106 25.0167 47.9106C23.023 47.9106 20.9949 47.649 18.9743 47.0991C8.8558 44.3475 2.08513 35.0552 2.08552 24.9529C2.08552 23.2519 2.2774 21.5283 2.67736 19.8081C5.14845 9.18243 14.5957 2.0686 24.9822 2.0686C26.9759 2.0686 29.004 2.33025 31.0248 2.88016C41.1434 5.63168 47.9143 14.9239 47.9138 25.0263C47.9138 26.7268 47.7221 28.4504 47.322 30.1706L47.562 30.2263L47.8019 30.282C48.2104 28.5253 48.4065 26.7637 48.4065 25.0263C48.406 14.7042 41.4938 5.21826 31.1539 2.40466C29.0908 1.84341 27.0192 1.57586 24.9822 1.57586C14.371 1.57536 4.72228 8.84293 2.19753 19.6967C1.78889 21.4534 1.59277 23.2149 1.59277 24.9529C1.59332 35.2745 8.50531 44.7604 18.845 47.5745C20.9082 48.1358 22.9802 48.4033 25.0167 48.4033C35.6286 48.4039 45.2771 41.1359 47.8019 30.282L47.562 30.2263Z" fill="white"/>
</mask>
<g mask="url(#mask1_1_39237)">
<path d="M47.562 30.2263L47.322 30.1706C44.8514 40.7963 35.4034 47.9106 25.0167 47.9106C23.023 47.9106 20.9949 47.649 18.9743 47.0991C8.8558 44.3475 2.08513 35.0552 2.08552 24.9529C2.08552 23.2519 2.2774 21.5283 2.67736 19.8081C5.14845 9.18243 14.5957 2.0686 24.9822 2.0686C26.9759 2.0686 29.004 2.33025 31.0248 2.88016C41.1434 5.63168 47.9143 14.9239 47.9138 25.0263C47.9138 26.7268 47.7221 28.4504 47.322 30.1706L47.562 30.2263L47.8019 30.282C48.2104 28.5253 48.4065 26.7637 48.4065 25.0263C48.406 14.7042 41.4938 5.21826 31.1539 2.40466C29.0908 1.84341 27.0192 1.57586 24.9822 1.57586C14.371 1.57536 4.72228 8.84293 2.19753 19.6967C1.78889 21.4534 1.59277 23.2149 1.59277 24.9529C1.59332 35.2745 8.50531 44.7604 18.845 47.5745C20.9082 48.1358 22.9802 48.4033 25.0167 48.4033C35.6286 48.4039 45.2771 41.1359 47.8019 30.282L47.562 30.2263Z" fill="url(#paint1_radial_1_39237)"/>
</g>
<mask id="mask2_1_39237" style="mask-type:luminance" maskUnits="userSpaceOnUse" x="8" y="8" width="34" height="34">
<path d="M40.7379 29.4989C38.2524 38.191 29.1918 43.2219 20.5001 40.7375C11.8082 38.252 6.77682 29.1914 9.26171 20.4993C11.747 11.8082 20.8076 6.77671 29.4992 9.26165C38.1913 11.7466 43.2228 20.8073 40.7379 29.4989Z" fill="white"/>
</mask>
<g mask="url(#mask2_1_39237)">
<path d="M40.7379 29.4989C38.2524 38.191 29.1918 43.2219 20.5001 40.7375C11.8082 38.252 6.77682 29.1914 9.26171 20.4993C11.747 11.8082 20.8076 6.77671 29.4992 9.26165C38.1913 11.7466 43.2228 20.8073 40.7379 29.4989Z" fill="url(#paint2_linear_1_39237)"/>
</g>
<mask id="mask3_1_39237" style="mask-type:luminance" maskUnits="userSpaceOnUse" x="9" y="9" width="32" height="32">
<path d="M34.6287 37.5811C27.6805 42.8989 17.736 41.5773 12.418 34.6286C7.09993 27.6798 8.42188 17.7357 15.3706 12.4179C22.3193 7.09966 32.2635 8.42171 37.5813 15.3705C42.8995 22.3192 41.5775 32.2629 34.6287 37.5811Z" fill="white"/>
</mask>
<g mask="url(#mask3_1_39237)">
<path d="M34.6287 37.5811C27.6805 42.8989 17.736 41.5773 12.418 34.6286C7.09993 27.6798 8.42188 17.7357 15.3706 12.4179C22.3193 7.09966 32.2635 8.42171 37.5813 15.3705C42.8995 22.3192 41.5775 32.2629 34.6287 37.5811Z" fill="url(#paint3_linear_1_39237)"/>
</g>
<mask id="mask4_1_39237" style="mask-type:luminance" maskUnits="userSpaceOnUse" x="28" y="41" width="5" height="5">
<path d="M30.7071 41.3883L31.223 42.7197L32.6485 42.7986L31.5413 43.7004L31.9069 45.0811L30.7071 44.3069L29.5072 45.0811L29.8728 43.7004L28.7656 42.7986L30.1911 42.7197L30.7071 41.3883Z" fill="white"/>
</mask>
<g mask="url(#mask4_1_39237)">
<path d="M30.7071 41.3883L31.223 42.7197L32.6485 42.7986L31.5413 43.7004L31.9069 45.0811L30.7071 44.3069L29.5072 45.0811L29.8728 43.7004L28.7656 42.7986L30.1911 42.7197L30.7071 41.3883Z" fill="url(#paint4_linear_1_39237)"/>
</g>
<mask id="mask5_1_39237" style="mask-type:luminance" maskUnits="userSpaceOnUse" x="17" y="41" width="5" height="5">
<path d="M19.2929 41.3883L19.8086 42.7197L21.2343 42.7986L20.1276 43.7004L20.4927 45.0811L19.2929 44.3069L18.093 45.0811L18.4585 43.7004L17.3516 42.7986L18.7773 42.7197L19.2929 41.3883Z" fill="white"/>
</mask>
<g mask="url(#mask5_1_39237)">
<path d="M19.2929 41.3883L19.8086 42.7197L21.2343 42.7986L20.1276 43.7004L20.4927 45.0811L19.2929 44.3069L18.093 45.0811L18.4585 43.7004L17.3516 42.7986L18.7773 42.7197L19.2929 41.3883Z" fill="url(#paint5_linear_1_39237)"/>
</g>
<mask id="mask6_1_39237" style="mask-type:luminance" maskUnits="userSpaceOnUse" x="22" y="42" width="6" height="6">
<path d="M25.0002 42.0888L25.693 43.8775L27.6083 43.9834L26.1207 45.195L26.612 47.0498L25.0002 46.01L23.3879 47.0498L23.8787 45.195L22.3916 43.9834L24.3074 43.8775L25.0002 42.0888Z" fill="white"/>
</mask>
<g mask="url(#mask6_1_39237)">
<path d="M25.0002 42.0888L25.693 43.8775L27.6083 43.9834L26.1207 45.195L26.612 47.0498L25.0002 46.01L23.3879 47.0498L23.8787 45.195L22.3916 43.9834L24.3074 43.8775L25.0002 42.0888Z" fill="url(#paint6_linear_1_39237)"/>
</g>
<mask id="mask7_1_39237" style="mask-type:luminance" maskUnits="userSpaceOnUse" x="28" y="4" width="5" height="5">
<path d="M30.7071 4.84152L31.223 6.17293L32.6485 6.25177L31.5413 7.15399L31.9069 8.53418L30.7071 7.76057L29.5072 8.53418L29.8728 7.15399L28.7656 6.25177L30.1911 6.17293L30.7071 4.84152Z" fill="white"/>
</mask>
<g mask="url(#mask7_1_39237)">
<path d="M30.7071 4.84152L31.223 6.17293L32.6485 6.25177L31.5413 7.15399L31.9069 8.53418L30.7071 7.76057L29.5072 8.53418L29.8728 7.15399L28.7656 6.25177L30.1911 6.17293L30.7071 4.84152Z" fill="url(#paint7_linear_1_39237)"/>
</g>
<mask id="mask8_1_39237" style="mask-type:luminance" maskUnits="userSpaceOnUse" x="17" y="4" width="5" height="5">
<path d="M19.291 4.84152L19.8066 6.17293L21.2324 6.25177L20.1257 7.15399L20.4908 8.53418L19.291 7.76057L18.091 8.53418L18.4566 7.15399L17.3496 6.25177L18.7753 6.17293L19.291 4.84152Z" fill="white"/>
</mask>
<g mask="url(#mask8_1_39237)">
<path d="M19.291 4.84152L19.8066 6.17293L21.2324 6.25177L20.1257 7.15399L20.4908 8.53418L19.291 7.76057L18.091 8.53418L18.4566 7.15399L17.3496 6.25177L18.7753 6.17293L19.291 4.84152Z" fill="url(#paint8_linear_1_39237)"/>
</g>
<mask id="mask9_1_39237" style="mask-type:luminance" maskUnits="userSpaceOnUse" x="22" y="2" width="6" height="6">
<path d="M24.9992 2.7265L25.692 4.51518L27.6074 4.62112L26.1198 5.83328L26.611 7.6875L24.9992 6.64731L23.387 7.6875L23.8777 5.83328L22.3906 4.62112L24.3064 4.51518L24.9992 2.7265Z" fill="white"/>
</mask>
<g mask="url(#mask9_1_39237)">
<path d="M24.9992 2.7265L25.692 4.51518L27.6074 4.62112L26.1198 5.83328L26.611 7.6875L24.9992 6.64731L23.387 7.6875L23.8777 5.83328L22.3906 4.62112L24.3064 4.51518L24.9992 2.7265Z" fill="url(#paint9_linear_1_39237)"/>
</g>
<g filter="url(#filter0_d_1_39237)">
<path d="M35.2346 24.206C34.9356 24.1437 34.7359 24.3058 34.4748 24.3311C34.2568 24.8718 33.9712 25.4451 33.342 25.5937C32.6698 25.8241 32.0846 25.4885 31.5741 25.1523C31.5118 25.0774 31.5554 24.8905 31.3811 24.9597C30.1552 23.4903 28.3124 23.2279 26.7744 22.3753C26.5631 22.3753 26.6504 22.0712 26.395 22.1827C25.8663 21.4422 24.982 21.5784 24.3158 21.174C23.8673 20.7823 23.1266 21.0931 22.6722 20.7324C22.3547 20.6259 21.9066 20.7136 21.7263 20.4145L20.3999 20.4768C19.9888 20.8634 19.3981 20.5393 18.8872 20.6079L18.0657 19.7861L18.1273 20.2281C18.0276 20.4459 17.903 20.2592 17.7477 20.2902V20.4768C17.7979 20.726 17.9477 20.9937 17.6229 21.1114C17.4743 21.3861 17.0691 21.6286 17.1818 21.9335C16.9036 22.4138 16.2511 22.5783 15.8863 23.0158C15.7584 23.1692 15.8215 23.4087 16.0098 23.475C16.2205 23.549 16.4735 23.5005 16.7398 23.4463C16.9761 23.714 16.4343 23.8136 16.4841 24.0754C16.9443 24.2557 17.406 24.05 17.7477 23.7639C18.1273 23.6766 18.5074 23.4032 18.8872 23.509C18.4078 24.05 17.4118 24.1558 17.4301 25.09H17.6229C17.8103 25.2581 17.5306 25.3823 17.6229 25.5937C18.3705 25.9925 18.215 24.9219 18.7566 24.7723L19.5791 24.7103C19.6964 24.8603 19.8466 24.9469 20.0202 24.9597C20.6113 25.3511 21.3775 25.4567 21.9127 25.8434C22.3481 26.0045 22.2118 25.4948 22.4162 25.3383C23.444 26.1172 24.6579 26.4223 25.9536 26.54C26.3572 26.4652 26.7991 26.677 27.2793 26.6026C27.8454 26.746 27.4276 27.1683 27.2793 27.4241C27.1048 28.9492 28.6482 29.261 29.4883 30.2005C29.8497 31.2714 28.169 31.7321 28.7985 32.9148L29.2393 32.7907C29.3461 33.0028 29.2774 33.2885 29.4267 33.4812L29.8064 33.2332C29.7938 33.1392 29.9558 33.0458 29.8064 32.9771C29.899 32.56 29.8252 32.0623 30.2485 31.7758C30.516 31.4022 30.7397 31.0096 30.8774 30.5809C30.5716 30.1137 30.3975 29.8764 29.9924 29.5036C29.8804 28.2214 31.3692 28.2714 31.3811 27.0444L31.319 26.9825C31.3439 26.8767 31.2685 26.7334 31.3811 26.6649C31.2685 26.6213 31.3439 26.4961 31.319 26.4159C31.4495 26.2544 31.6183 26.1919 31.8228 26.2233C32.1036 26.4784 32.6387 26.2292 32.8382 26.54L33.654 26.6026C34.5055 26.633 34.6993 25.7622 35.1101 25.2764C35.0914 24.8969 35.689 24.5294 35.2346 24.206Z" fill="#EFCE4F"/>
</g>
<g filter="url(#filter1_d_1_39237)">
<path d="M29.49 21.42C29.49 22.6111 29.2582 23.9353 28.7729 25.2823C27.8909 27.7353 26.2959 29.7506 24.6114 30.5428C23.7433 30.9511 22.8864 31.0218 22.1266 30.748C21.3688 30.4762 20.7527 29.8737 20.3449 29.0065C19.5516 27.3223 19.6083 24.7528 20.4907 22.3011C21.3724 19.8488 22.9689 17.8343 24.6509 17.0406C25.5196 16.6332 26.3792 16.5621 27.1363 16.8339C28.6564 17.3818 29.49 19.1614 29.49 21.42ZM27.9771 24.9966C28.4193 23.7731 28.6297 22.5455 28.6297 21.4498C28.6297 19.5487 28.0006 18.0424 26.8511 17.6286C26.3073 17.4344 25.6722 17.4954 25.0123 17.8051C23.5227 18.5048 22.0953 20.337 21.2851 22.5868C20.4761 24.8365 20.4089 27.1573 21.1087 28.6453C21.4188 29.3068 21.871 29.7587 22.4132 29.9541C22.9567 30.1496 23.5919 30.0889 24.2519 29.7791C25.7411 29.0786 27.1695 27.2457 27.9771 24.9966Z" fill="#EFCE4F"/>
</g>
<g clip-path="url(#clip0_1_39237)">
<path d="M28.0206 22.8917H27.5627V21.9759C27.5627 20.7122 26.5371 19.6865 25.2734 19.6865C24.0096 19.6865 22.984 20.7122 22.984 21.9759V22.8917H22.5261C22.0224 22.8917 21.6104 23.3037 21.6104 23.8074V28.3862C21.6104 28.8898 22.0224 29.3019 22.5261 29.3019H28.0206C28.5243 29.3019 28.9364 28.8898 28.9364 28.3862V23.8074C28.9364 23.3037 28.5243 22.8917 28.0206 22.8917ZM25.2734 27.0125C24.7697 27.0125 24.3576 26.6004 24.3576 26.0968C24.3576 25.5931 24.7697 25.181 25.2734 25.181C25.777 25.181 26.1891 25.5931 26.1891 26.0968C26.1891 26.6004 25.777 27.0125 25.2734 27.0125ZM26.6928 22.8917H23.8539V21.9759C23.8539 21.1929 24.4904 20.5565 25.2734 20.5565C26.0563 20.5565 26.6928 21.1929 26.6928 21.9759V22.8917Z" fill="#514B4B"/>
</g>
<defs>
<filter id="filter0_d_1_39237" x="15.168" y="19.7861" width="20.8887" height="14.9981" filterUnits="userSpaceOnUse" color-interpolation-filters="sRGB">
<feFlood flood-opacity="0" result="BackgroundImageFix"/>
<feColorMatrix in="SourceAlpha" type="matrix" values="0 0 0 0 0 0 0 0 0 0 0 0 0 0 0 0 0 0 127 0" result="hardAlpha"/>
<feOffset dy="0.65138"/>
<feGaussianBlur stdDeviation="0.32569"/>
<feComposite in2="hardAlpha" operator="out"/>
<feColorMatrix type="matrix" values="0 0 0 0 0 0 0 0 0 0 0 0 0 0 0 0 0 0 0.16 0"/>
<feBlend mode="normal" in2="BackgroundImageFix" result="effect1_dropShadow_1_39237"/>
<feBlend mode="normal" in="SourceGraphic" in2="effect1_dropShadow_1_39237" result="shape"/>
</filter>
<filter id="filter1_d_1_39237" x="19.1357" y="16.6719" width="11.0059" height="15.543" filterUnits="userSpaceOnUse" color-interpolation-filters="sRGB">
<feFlood flood-opacity="0" result="BackgroundImageFix"/>
<feColorMatrix in="SourceAlpha" type="matrix" values="0 0 0 0 0 0 0 0 0 0 0 0 0 0 0 0 0 0 127 0" result="hardAlpha"/>
<feOffset dy="0.65138"/>
<feGaussianBlur stdDeviation="0.32569"/>
<feComposite in2="hardAlpha" operator="out"/>
<feColorMatrix type="matrix" values="0 0 0 0 0 0 0 0 0 0 0 0 0 0 0 0 0 0 0.16 0"/>
<feBlend mode="normal" in2="BackgroundImageFix" result="effect1_dropShadow_1_39237"/>
<feBlend mode="normal" in="SourceGraphic" in2="effect1_dropShadow_1_39237" result="shape"/>
</filter>
<linearGradient id="paint0_linear_1_39237" x1="2.00088e-05" y1="24.9997" x2="49.9998" y2="24.9997" gradientUnits="userSpaceOnUse">
<stop stop-color="#FFF5A8"/>
<stop offset="0.312332" stop-color="#BD8100"/>
<stop offset="0.957503" stop-color="#F1DC83"/>
<stop offset="1" stop-color="#F1DC83"/>
</linearGradient>
<radialGradient id="paint1_radial_1_39237" cx="0" cy="0" r="1" gradientUnits="userSpaceOnUse" gradientTransform="translate(25 24.9893) rotate(14.3586) scale(23.4104)">
<stop stop-color="#FFF5A8"/>
<stop offset="0.722813" stop-color="#FFF5A8"/>
<stop offset="0.798686" stop-color="#FFF5A8"/>
<stop offset="1" stop-color="#FFF5A8"/>
</radialGradient>
<linearGradient id="paint2_linear_1_39237" x1="8.62705" y1="24.9991" x2="41.3724" y2="24.9991" gradientUnits="userSpaceOnUse">
<stop stop-color="#FFF5A8"/>
<stop offset="0.312332" stop-color="#BD8100"/>
<stop offset="0.957503" stop-color="#F1DC83"/>
<stop offset="1" stop-color="#F1DC83"/>
</linearGradient>
<linearGradient id="paint3_linear_1_39237" x1="12.2796" y1="15.5474" x2="37.7198" y2="34.452" gradientUnits="userSpaceOnUse">
<stop stop-color="#FFF5A8"/>
<stop offset="0.312332" stop-color="#BD8100"/>
<stop offset="0.957503" stop-color="#F1DC83"/>
<stop offset="1" stop-color="#F1DC83"/>
</linearGradient>
<linearGradient id="paint4_linear_1_39237" x1="30.7071" y1="45.0811" x2="30.7071" y2="41.3882" gradientUnits="userSpaceOnUse">
<stop stop-color="#F8DA5B"/>
<stop offset="0.217058" stop-color="#AE802B"/>
<stop offset="0.328146" stop-color="#AE802B"/>
<stop offset="0.442225" stop-color="#F8DA5B"/>
<stop offset="0.45668" stop-color="#F8DA5B"/>
<stop offset="0.464777" stop-color="#F8DA5B"/>
<stop offset="0.579076" stop-color="#FDF9BD"/>
<stop offset="0.766806" stop-color="#DEC874"/>
<stop offset="0.800575" stop-color="#DEC874"/>
<stop offset="0.977573" stop-color="#FDF9BD"/>
<stop offset="1" stop-color="#FDF9BD"/>
</linearGradient>
<linearGradient id="paint5_linear_1_39237" x1="19.2929" y1="45.0811" x2="19.2929" y2="41.3882" gradientUnits="userSpaceOnUse">
<stop stop-color="#F8DA5B"/>
<stop offset="0.217058" stop-color="#AE802B"/>
<stop offset="0.328146" stop-color="#AE802B"/>
<stop offset="0.442225" stop-color="#F8DA5B"/>
<stop offset="0.45668" stop-color="#F8DA5B"/>
<stop offset="0.464777" stop-color="#F8DA5B"/>
<stop offset="0.579076" stop-color="#FDF9BD"/>
<stop offset="0.766806" stop-color="#DEC874"/>
<stop offset="0.800575" stop-color="#DEC874"/>
<stop offset="0.977573" stop-color="#FDF9BD"/>
<stop offset="1" stop-color="#FDF9BD"/>
</linearGradient>
<linearGradient id="paint6_linear_1_39237" x1="25.0002" y1="47.0498" x2="25.0002" y2="42.0888" gradientUnits="userSpaceOnUse">
<stop stop-color="#F8DA5B"/>
<stop offset="0.217058" stop-color="#AE802B"/>
<stop offset="0.328146" stop-color="#AE802B"/>
<stop offset="0.442225" stop-color="#F8DA5B"/>
<stop offset="0.45668" stop-color="#F8DA5B"/>
<stop offset="0.464777" stop-color="#F8DA5B"/>
<stop offset="0.579076" stop-color="#FDF9BD"/>
<stop offset="0.766806" stop-color="#DEC874"/>
<stop offset="0.800575" stop-color="#DEC874"/>
<stop offset="0.977573" stop-color="#FDF9BD"/>
<stop offset="1" stop-color="#FDF9BD"/>
</linearGradient>
<linearGradient id="paint7_linear_1_39237" x1="30.7071" y1="8.53467" x2="30.7071" y2="4.84184" gradientUnits="userSpaceOnUse">
<stop stop-color="#F8DA5B"/>
<stop offset="0.217058" stop-color="#AE802B"/>
<stop offset="0.328146" stop-color="#AE802B"/>
<stop offset="0.442225" stop-color="#F8DA5B"/>
<stop offset="0.45668" stop-color="#F8DA5B"/>
<stop offset="0.464777" stop-color="#F8DA5B"/>
<stop offset="0.579076" stop-color="#FDF9BD"/>
<stop offset="0.766806" stop-color="#DEC874"/>
<stop offset="0.800575" stop-color="#DEC874"/>
<stop offset="0.977573" stop-color="#FDF9BD"/>
<stop offset="1" stop-color="#FDF9BD"/>
</linearGradient>
<linearGradient id="paint8_linear_1_39237" x1="19.291" y1="8.53467" x2="19.291" y2="4.84184" gradientUnits="userSpaceOnUse">
<stop stop-color="#F8DA5B"/>
<stop offset="0.217058" stop-color="#AE802B"/>
<stop offset="0.328146" stop-color="#AE802B"/>
<stop offset="0.442225" stop-color="#F8DA5B"/>
<stop offset="0.45668" stop-color="#F8DA5B"/>
<stop offset="0.464777" stop-color="#F8DA5B"/>
<stop offset="0.579076" stop-color="#FDF9BD"/>
<stop offset="0.766806" stop-color="#DEC874"/>
<stop offset="0.800575" stop-color="#DEC874"/>
<stop offset="0.977573" stop-color="#FDF9BD"/>
<stop offset="1" stop-color="#FDF9BD"/>
</linearGradient>
<linearGradient id="paint9_linear_1_39237" x1="24.9992" y1="7.6875" x2="24.9992" y2="2.72645" gradientUnits="userSpaceOnUse">
<stop stop-color="#F8DA5B"/>
<stop offset="0.217058" stop-color="#AE802B"/>
<stop offset="0.328146" stop-color="#AE802B"/>
<stop offset="0.442225" stop-color="#F8DA5B"/>
<stop offset="0.45668" stop-color="#F8DA5B"/>
<stop offset="0.464777" stop-color="#F8DA5B"/>
<stop offset="0.579076" stop-color="#FDF9BD"/>
<stop offset="0.766806" stop-color="#DEC874"/>
<stop offset="0.800575" stop-color="#DEC874"/>
<stop offset="0.977573" stop-color="#FDF9BD"/>
<stop offset="1" stop-color="#FDF9BD"/>
</linearGradient>
<clipPath id="clip0_1_39237">
<rect width="10.989" height="10.989" fill="white" transform="translate(19.7803 19.2295)"/>
</clipPath>
</defs>
</svg>
