<svg width="136" height="136" viewBox="0 0 136 136" fill="none" xmlns="http://www.w3.org/2000/svg">
<g clip-path="url(#clip0_277_4827)">
<path d="M118.328 34.4494H100.316L90.1839 23.1916H56.4105V34.4494H85.1179L95.8128 45.7072H118.328V113.254H28.2661V62.5939H17.0083V113.254C17.0083 119.446 22.0743 124.512 28.2661 124.512H118.328C124.52 124.512 129.586 119.446 129.586 113.254V45.7072C129.586 39.5154 124.52 34.4494 118.328 34.4494ZM45.1527 79.4806C45.1527 104.529 75.4925 117.138 93.2235 99.4069C110.955 81.6758 98.3458 51.3361 73.2972 51.3361C57.7615 51.3361 45.1527 63.9448 45.1527 79.4806ZM73.2972 62.5939C82.5286 62.8753 89.9024 70.2492 90.1839 79.4806C89.9024 88.7119 82.5286 96.0858 73.2972 96.3672C64.0658 96.0858 56.692 88.7119 56.4105 79.4806C56.692 70.2492 64.0658 62.8753 73.2972 62.5939ZM28.2661 34.4494H45.1527V23.1916H28.2661V6.30493H17.0083V23.1916H0.121582V34.4494H17.0083V51.3361H28.2661" fill="#E35205"/>
</g>
<defs>
<clipPath id="clip0_277_4827">
<rect width="135.093" height="135.093" fill="white" transform="translate(0.121582 0.673523)"/>
</clipPath>
</defs>
</svg>
